<svg width="14" height="10" viewBox="0 0 14 10" fill="none" xmlns="http://www.w3.org/2000/svg">
<path d="M7.97017 1.53C7.89649 1.46134 7.83738 1.37854 7.79639 1.28654C7.7554 1.19454 7.73336 1.09523 7.73158 0.994523C7.7298 0.893821 7.74833 0.793791 7.78605 0.700403C7.82377 0.607015 7.87991 0.522181 7.95113 0.450962C8.02235 0.379744 8.10719 0.323599 8.20057 0.285878C8.29396 0.248157 8.39399 0.229633 8.49469 0.231409C8.5954 0.233186 8.69471 0.255228 8.78671 0.29622C8.87871 0.337212 8.96151 0.396314 9.03017 0.470001L13.0302 4.47C13.1706 4.61063 13.2495 4.80125 13.2495 5C13.2495 5.19875 13.1706 5.38938 13.0302 5.53L9.03017 9.53C8.96151 9.60369 8.87871 9.66279 8.78671 9.70378C8.69471 9.74477 8.5954 9.76682 8.49469 9.76859C8.39399 9.77037 8.29396 9.75184 8.20057 9.71412C8.10719 9.6764 8.02235 9.62026 7.95113 9.54904C7.87991 9.47782 7.82377 9.39299 7.78605 9.2996C7.74833 9.20621 7.7298 9.10618 7.73158 9.00548C7.73336 8.90478 7.7554 8.80546 7.79639 8.71346C7.83738 8.62146 7.89649 8.53866 7.97017 8.47L10.6902 5.75H1.00017C0.801259 5.75 0.610494 5.67098 0.469841 5.53033C0.329188 5.38968 0.250172 5.19891 0.250172 5C0.250172 4.80109 0.329188 4.61032 0.469841 4.46967C0.610494 4.32902 0.801259 4.25 1.00017 4.25H10.6902L7.97017 1.53Z" fill="#888D8D"/>
</svg>
