<svg width="31" height="30" viewBox="0 0 31 30" fill="none" xmlns="http://www.w3.org/2000/svg">
<path d="M15.5001 20.3571C15.0806 20.3572 14.6703 20.2343 14.32 20.0035C13.9698 19.7726 13.695 19.4441 13.5297 19.0585C13.184 18.9769 12.8437 18.8738 12.5108 18.7499L12.4926 18.7435C11.515 18.3766 10.6126 17.8341 9.83005 17.1428C8.78154 16.2179 7.97521 15.0505 7.48138 13.7424C6.98755 12.4343 6.8212 11.0253 6.99685 9.6382C7.17249 8.2511 7.6848 6.92802 8.48909 5.78433C9.29338 4.64065 10.3652 3.71108 11.6112 3.07667C12.8572 2.44227 14.2394 2.12229 15.6374 2.14465C17.0354 2.16701 18.4067 2.53102 19.6318 3.20494C20.8568 3.87886 21.8984 4.84223 22.6657 6.01105C23.433 7.17987 23.9028 8.51865 24.034 9.91066C24.0758 10.3532 23.7126 10.7142 23.2679 10.7142C22.8243 10.7142 22.4697 10.3532 22.4183 9.91173C22.2766 8.69383 21.816 7.5349 21.0828 6.55211C20.3497 5.56932 19.3701 4.7975 18.2431 4.31467C17.116 3.83184 15.8815 3.65512 14.6643 3.80236C13.447 3.94961 12.2902 4.41561 11.3108 5.15325C10.3314 5.89089 9.56411 6.87403 9.08647 8.00328C8.60884 9.13253 8.4378 10.3679 8.59065 11.5844C8.74349 12.801 9.21481 13.9556 9.95695 14.9316C10.6991 15.9076 11.6858 16.6704 12.8172 17.1428L12.8601 17.161C13.0743 17.2489 13.2943 17.3264 13.5201 17.3935C13.7265 16.8906 14.1163 16.485 14.6106 16.2587C15.1048 16.0324 15.6666 16.0025 16.1822 16.1749C16.6977 16.3474 17.1284 16.7093 17.3871 17.1874C17.6458 17.6655 17.7131 18.2241 17.5754 18.7499C17.4566 19.21 17.1883 19.6175 16.8126 19.9085C16.4369 20.1994 15.9752 20.3572 15.5001 20.3571ZM8.00005 18.7499H9.25255C8.65353 18.283 8.10806 17.7512 7.62612 17.1642C6.84367 17.2559 6.12213 17.6317 5.59851 18.2203C5.07489 18.8089 4.78567 19.5693 4.78577 20.3571V21.1232C4.78577 25.1067 9.29648 27.8571 15.5001 27.8571C21.7036 27.8571 26.2143 24.9557 26.2143 21.1232V20.3571C26.2143 19.5046 25.8757 18.687 25.2729 18.0842C24.6701 17.4814 23.8525 17.1428 23.0001 17.1428H19.0947C19.25 17.6636 19.2902 18.212 19.2126 18.7499H23.0001L23.1554 18.7574C23.5529 18.796 23.9218 18.9813 24.1901 19.277C24.4585 19.5727 24.6072 19.9577 24.6072 20.3571V21.1232L24.6018 21.2957C24.4518 23.9957 20.7779 26.2499 15.5001 26.2499C10.024 26.2499 6.39291 23.9882 6.39291 21.1232V20.3571L6.40041 20.2017C6.43901 19.8042 6.62422 19.4354 6.91994 19.167C7.21566 18.8986 7.6007 18.7499 8.00005 18.7499ZM20.8572 10.7142C20.8574 11.6847 20.5939 12.637 20.095 13.4694C19.596 14.3018 18.8803 14.983 18.0243 15.4403C17.3337 14.8121 16.4336 14.464 15.5001 14.4642C15.9925 14.4642 16.4801 14.3672 16.9351 14.1788C17.3901 13.9903 17.8035 13.7141 18.1517 13.3659C18.4999 13.0177 18.7761 12.6043 18.9646 12.1493C19.1531 11.6943 19.2501 11.2067 19.2501 10.7142C19.2501 10.2218 19.1531 9.73414 18.9646 9.27917C18.7761 8.8242 18.4999 8.4108 18.1517 8.06258C17.8035 7.71436 17.3901 7.43814 16.9351 7.24968C16.4801 7.06123 15.9925 6.96423 15.5001 6.96423C14.5055 6.96423 13.5517 7.35932 12.8484 8.06258C12.1451 8.76584 11.7501 9.71967 11.7501 10.7142C11.7501 11.7088 12.1451 12.6626 12.8484 13.3659C13.5517 14.0691 14.5055 14.4642 15.5001 14.4642C14.5272 14.4642 13.6422 14.8349 12.9768 15.4414C12.1213 14.9844 11.4058 14.3038 10.9068 13.4721C10.482 12.7643 10.2264 11.9679 10.1602 11.145C10.0939 10.3221 10.2187 9.49507 10.5249 8.7284C10.831 7.96173 11.3102 7.27619 11.925 6.72528C12.5398 6.17437 13.2737 5.773 14.0692 5.55251C14.8647 5.33201 15.7005 5.29836 16.5112 5.45417C17.3219 5.60998 18.0856 5.95105 18.7427 6.45074C19.3998 6.95043 19.9326 7.59522 20.2994 8.33479C20.6662 9.07436 20.8571 9.8887 20.8572 10.7142Z" fill="white"/>
</svg>
