<svg width="22" height="22" viewBox="0 0 22 22" fill="none" xmlns="http://www.w3.org/2000/svg">
<path d="M11 0.25L6.3125 4H15.6875L11 0.25ZM3.96875 1.1875L0.6875 5.5525V21.8125H21.3125V5.5525L18.0312 1.1875H13.3438L15.6875 3.0625H17.0938L18.5 4.9375H3.5L4.90625 3.0625H6.3125L8.65625 1.1875H3.96875ZM2.5625 6.8125H19.4375V19.9375H2.5625V6.8125ZM8.01219 8.6875C7.49562 8.73438 7.11406 9.19656 7.16188 9.71313C7.20969 10.2288 7.67094 10.6103 8.1875 10.5625H13.8125C14.15 10.5662 14.4641 10.39 14.6366 10.0975C14.7193 9.95378 14.7629 9.79084 14.7629 9.625C14.7629 9.45916 14.7193 9.29622 14.6366 9.1525C14.4641 8.86 14.1491 8.68375 13.8125 8.6875H8.01219Z" fill="white"/>
</svg>
