<svg width="30" height="22" viewBox="0 0 30 22" fill="none" xmlns="http://www.w3.org/2000/svg">
<path d="M29.591 7.74989L26.6015 1.76746C26.5052 1.57471 26.372 1.40281 26.2093 1.26157C26.0466 1.12033 25.8577 1.01251 25.6533 0.944284C25.4489 0.876055 25.2331 0.848746 25.0182 0.863916C24.8033 0.879087 24.5935 0.936439 24.4007 1.0327L21.4054 2.53036L15.1792 0.882699C15.0617 0.852232 14.9382 0.852232 14.8207 0.882699L8.59448 2.53036L5.60034 1.0327C5.40753 0.936257 5.19761 0.878759 4.98256 0.863493C4.76752 0.848228 4.55158 0.875494 4.34708 0.943733C4.14258 1.01197 3.95354 1.11984 3.79076 1.26119C3.62797 1.40253 3.49464 1.57456 3.39838 1.76746L0.408931 7.74989C0.21444 8.13902 0.182464 8.58947 0.320033 9.00218C0.457602 9.41488 0.753452 9.75605 1.14252 9.95067L4.32417 11.5421L10.841 16.1968C10.9116 16.2477 10.9911 16.285 11.0753 16.3069L18.5753 18.1819C18.6324 18.1962 18.6911 18.2033 18.7499 18.203C18.9364 18.2028 19.1151 18.1287 19.2468 17.9968L25.7285 11.5151L28.8574 9.95067C29.2464 9.75605 29.5423 9.41488 29.6799 9.00218C29.8174 8.58947 29.7855 8.13902 29.591 7.74989ZM23.38 11.8702L19.1847 8.50926C19.0494 8.40098 18.8789 8.34647 18.7059 8.3562C18.5328 8.36593 18.3695 8.43922 18.2472 8.562C16.0617 10.7639 13.6183 10.4862 12.0609 9.49012C12.0303 9.47124 12.0044 9.44556 11.9853 9.41508C11.9662 9.3846 11.9544 9.35013 11.9507 9.31434C11.9466 9.28152 11.9498 9.2482 11.9601 9.21678C11.9705 9.18536 11.9877 9.15664 12.0105 9.1327L17.1597 4.14051H21.1277L24.457 10.7991L23.38 11.8702ZM1.65346 8.55731C1.63408 8.49856 1.63872 8.43453 1.66635 8.37918L4.65698 2.39559C4.67663 2.35658 4.7068 2.32384 4.74407 2.30106C4.78134 2.27829 4.82424 2.26638 4.86792 2.26668C4.90411 2.26672 4.93981 2.27515 4.97221 2.29129L7.57495 3.59207L4.37338 9.99989L1.77065 8.69911C1.74256 8.6846 1.7177 8.66455 1.69756 8.64018C1.67742 8.61582 1.66242 8.58763 1.65346 8.55731ZM18.5343 16.7218L11.5499 14.9757L5.5851 10.7147L9.00463 3.87684L14.9999 2.29012L16.7343 2.7495C16.6017 2.77516 16.4795 2.83912 16.3828 2.93348L11.0273 8.13075C10.8534 8.30453 10.7208 8.51516 10.6393 8.74708C10.5577 8.979 10.5294 9.22628 10.5563 9.47064C10.5831 9.715 10.6646 9.9502 10.7946 10.1588C10.9246 10.3675 11.0999 10.5442 11.3074 10.6761C13.6769 12.1901 16.5515 11.9054 18.7839 9.98582L22.3828 12.871L18.5343 16.7218ZM28.3464 8.55731C28.3368 8.58656 28.3215 8.61361 28.3014 8.63694C28.2813 8.66026 28.2568 8.6794 28.2292 8.69325L25.6265 9.99989L22.4249 3.59207L25.0277 2.29129C25.0552 2.27745 25.0853 2.26919 25.116 2.26697C25.1468 2.26476 25.1777 2.26865 25.207 2.2784C25.2362 2.28805 25.2633 2.30336 25.2866 2.32347C25.3099 2.34358 25.3291 2.36808 25.3429 2.39559L28.3335 8.37918C28.3612 8.43453 28.3658 8.49856 28.3464 8.55731ZM15.2214 20.4823C15.1763 20.6632 15.0612 20.8187 14.9015 20.9147C14.7417 21.0108 14.5504 21.0394 14.3695 20.9944L9.47924 19.7722C9.39488 19.7505 9.31536 19.7132 9.24487 19.662L6.15463 17.4577C6.00281 17.3489 5.90041 17.1843 5.86997 17C5.83954 16.8157 5.88355 16.6269 5.99233 16.4751C6.10111 16.3233 6.26575 16.2209 6.45002 16.1904C6.6343 16.16 6.82312 16.204 6.97495 16.3128L9.95034 18.4374L14.7093 19.6268C14.7991 19.6493 14.8836 19.6893 14.958 19.7444C15.0323 19.7996 15.095 19.869 15.1425 19.9484C15.19 20.0279 15.2213 20.116 15.2346 20.2076C15.248 20.2992 15.2431 20.3926 15.2203 20.4823H15.2214Z" fill="white"/>
</svg>
