<svg width="20" height="27" viewBox="0 0 20 27" fill="none" xmlns="http://www.w3.org/2000/svg">
<path d="M5.30737 0.143016L4.13285 0.507619C3.08704 0.832604 2.15309 1.45867 1.44092 2.31213C0.728753 3.1656 0.268008 4.21093 0.112916 5.32511C-0.373604 8.81585 0.714104 12.8974 3.33672 17.5781C5.95279 22.2471 8.8326 25.2551 12.0023 26.5717C13.0208 26.9947 14.1357 27.1074 15.2145 26.8964C16.2933 26.6854 17.2907 26.1597 18.0879 25.3817L18.9758 24.5141C19.5523 23.9518 19.9111 23.193 19.9856 22.3786C20.06 21.5643 19.8449 20.7498 19.3804 20.0865L17.1591 16.9131C16.8588 16.4847 16.4359 16.1638 15.9498 15.9955C15.4636 15.8272 14.9385 15.8199 14.4481 15.9746L11.0883 17.0329L11.0015 17.0498C10.6312 17.1055 9.77615 16.2801 8.71137 14.3794C7.59746 12.391 7.36812 11.228 7.67445 10.9275L9.383 9.28511C10.0072 8.68454 10.4335 7.89793 10.6024 7.03534C10.7713 6.17275 10.6743 5.27733 10.3249 4.47437L9.24048 1.99135C8.9144 1.24416 8.33575 0.644646 7.61241 0.304576C6.88907 -0.0354936 6.06876 -0.0929152 5.30737 0.143016ZM7.7498 2.68342L8.83096 5.16644C9.04077 5.64805 9.09925 6.18519 8.99821 6.70274C8.89717 7.22028 8.64167 7.69234 8.26745 8.05288L6.55398 9.69697C5.45644 10.7672 5.8201 12.5935 7.29441 15.2234C8.68025 17.698 9.94487 18.9201 11.3045 18.7074L11.5076 18.6635L14.928 17.5883C15.0915 17.5365 15.2666 17.5388 15.4288 17.5948C15.591 17.6508 15.732 17.7577 15.8323 17.9006L18.0535 21.0739C18.2861 21.4056 18.3939 21.8129 18.3569 22.2203C18.3198 22.6277 18.1404 23.0073 17.8521 23.2886L16.9626 24.1562C16.3931 24.7116 15.6808 25.0868 14.9104 25.2373C14.14 25.3878 13.3439 25.3073 12.6166 25.0053C9.83512 23.8507 7.20595 21.1043 4.75697 16.7342C2.30144 12.3539 1.3071 8.62848 1.73465 5.5648C1.84532 4.7688 2.1744 4.02196 2.68315 3.4122C3.19189 2.80244 3.85912 2.35516 4.60626 2.12301L5.78079 1.75841C6.16158 1.6405 6.57099 1.66934 6.93268 1.83953C7.29436 2.00973 7.58362 2.30967 7.74653 2.68342" fill="#121212"/>
</svg>
