<svg width="22" height="30" viewBox="0 0 22 30" fill="none" xmlns="http://www.w3.org/2000/svg">
<path d="M11.333 14.25C10.3384 14.25 9.38462 13.8549 8.68136 13.1517C7.9781 12.4484 7.58301 11.4946 7.58301 10.5C7.58301 9.50544 7.9781 8.55161 8.68136 7.84835C9.38462 7.14509 10.3384 6.75 11.333 6.75C12.3276 6.75 13.2814 7.14509 13.9847 7.84835C14.6879 8.55161 15.083 9.50544 15.083 10.5C15.083 10.9925 14.986 11.4801 14.7976 11.9351C14.6091 12.39 14.3329 12.8034 13.9847 13.1517C13.6364 13.4999 13.223 13.7761 12.7681 13.9645C12.3131 14.153 11.8255 14.25 11.333 14.25ZM11.333 0C8.54823 0 5.87752 1.10625 3.90839 3.07538C1.93925 5.04451 0.833008 7.71523 0.833008 10.5C0.833008 18.375 11.333 30 11.333 30C11.333 30 21.833 18.375 21.833 10.5C21.833 7.71523 20.7268 5.04451 18.7576 3.07538C16.7885 1.10625 14.1178 0 11.333 0Z" fill="#6A65FF"/>
</svg>
