<svg width="22" height="27" viewBox="0 0 22 27" fill="none" xmlns="http://www.w3.org/2000/svg">
<path d="M17.25 9V6.5C17.25 4.1425 17.25 2.965 16.5175 2.2325C15.785 1.5 14.6075 1.5 12.25 1.5H9.75C7.3925 1.5 6.215 1.5 5.4825 2.2325C4.75 2.965 4.75 4.1425 4.75 6.5V9" stroke="white" stroke-width="1.5"/>
<path d="M9.20495 6.22875C9.75561 5.92854 10.3728 5.77124 10.9999 5.77124C11.6271 5.77124 12.2443 5.92854 12.7949 6.22875L18.7874 9.49625C19.3791 9.81879 19.8728 10.2948 20.2169 10.8742C20.5609 11.4535 20.7424 12.1149 20.7424 12.7888V18.9613C20.7424 19.6351 20.5609 20.2965 20.2169 20.8758C19.8728 21.4552 19.3791 21.9312 18.7874 22.2538L12.7949 25.5213C12.2443 25.8215 11.6271 25.9788 10.9999 25.9788C10.3728 25.9788 9.75561 25.8215 9.20495 25.5213L3.2112 22.2538C2.61981 21.9311 2.12628 21.455 1.78249 20.8756C1.43869 20.2962 1.25732 19.635 1.25745 18.9613V12.7875C1.25732 12.1138 1.43869 11.4525 1.78249 10.8731C2.12628 10.2938 2.61981 9.8177 3.2112 9.495L9.20495 6.22875Z" stroke="white" stroke-width="1.5"/>
<path d="M9.93248 13.4037C10.4075 12.5512 10.645 12.125 11 12.125C11.355 12.125 11.5925 12.5512 12.0675 13.4037L12.19 13.6238C12.325 13.8663 12.3925 13.9862 12.4975 14.0675C12.6037 14.1462 12.735 14.1763 12.9975 14.2363L13.235 14.29C14.1575 14.4988 14.6187 14.6025 14.7287 14.9563C14.8387 15.3088 14.5237 15.6762 13.895 16.4112L13.7325 16.6013C13.5537 16.8113 13.4637 16.915 13.4237 17.045C13.3837 17.175 13.3975 17.3125 13.4237 17.5925L13.4487 17.8462C13.5437 18.8262 13.5912 19.3175 13.305 19.535C13.0175 19.7537 12.585 19.555 11.7212 19.1575L11.4987 19.0537C11.2525 18.9412 11.13 18.885 11 18.885C10.87 18.885 10.7475 18.9412 10.5012 19.0537L10.2787 19.1575C9.41498 19.555 8.98248 19.7537 8.69498 19.535C8.40748 19.3175 8.45623 18.8262 8.55123 17.8462L8.57623 17.5925C8.60248 17.3125 8.61623 17.1737 8.57623 17.045C8.53623 16.915 8.44623 16.8113 8.26748 16.6013L8.10498 16.4112C7.47623 15.6762 7.16123 15.3088 7.27123 14.9563C7.38123 14.6025 7.84248 14.4988 8.76498 14.29L9.00248 14.2363C9.26498 14.1763 9.39623 14.1462 9.50248 14.0675C9.60748 13.9875 9.67498 13.8663 9.80998 13.6238L9.93248 13.4037Z" stroke="white" stroke-width="1.5"/>
</svg>
