<svg width="30" height="11" viewBox="0 0 30 11" fill="none" xmlns="http://www.w3.org/2000/svg">
<path d="M15.6125 3.1025V2.54H17.2962V10.4425H16.3337C16.1432 10.4428 15.9603 10.3676 15.8251 10.2334C15.69 10.0991 15.6135 9.91677 15.6125 9.72625C14.9098 10.241 14.061 10.519 13.19 10.5175C12.1017 10.5175 11.058 10.0854 10.2882 9.31606C9.51845 8.54676 9.08566 7.50328 9.085 6.415C9.08566 5.32672 9.51845 4.28324 10.2882 3.51394C11.058 2.74465 12.1017 2.3125 13.19 2.3125C14.0606 2.31126 14.9101 2.58803 15.6125 3.1025ZM8.64875 0V0.25625C8.64875 0.73375 8.585 1.12375 8.27375 1.58125L8.23625 1.62375C8.13266 1.74013 8.03179 1.85891 7.93375 1.98L2.53 8.7625H8.64875V9.7225C8.64875 9.81716 8.63008 9.91089 8.59382 9.99832C8.55756 10.0858 8.50442 10.1652 8.43742 10.2321C8.37043 10.2989 8.29091 10.3519 8.20342 10.3881C8.11592 10.4242 8.02216 10.4427 7.9275 10.4425H0V9.99C0 9.43625 0.1375 9.18875 0.3125 8.93125L6.0725 1.8H0.24V0H8.64875ZM19.3375 10.4425C19.1784 10.4425 19.0258 10.3793 18.9132 10.2668C18.8007 10.1542 18.7375 10.0016 18.7375 9.8425V0H20.5387V10.4425H19.3375ZM25.8663 2.2625C26.4089 2.26234 26.9463 2.36906 27.4478 2.57659C27.9492 2.78412 28.4049 3.08837 28.7887 3.472C29.1726 3.85562 29.4771 4.31109 29.685 4.81241C29.8928 5.31372 29.9998 5.85106 30 6.39375C30.0002 6.93644 29.8934 7.47384 29.6859 7.97529C29.4784 8.47673 29.1741 8.93238 28.7905 9.31623C28.4069 9.70009 27.9514 10.0046 27.4501 10.2125C26.9488 10.4203 26.4114 10.5273 25.8687 10.5275C24.7727 10.5278 23.7215 10.0928 22.9463 9.318C22.171 8.54324 21.7353 7.49226 21.735 6.39625C21.7347 5.30024 22.1697 4.24899 22.9445 3.47376C23.7193 2.69854 24.7702 2.26283 25.8663 2.2625ZM13.1913 8.82875C13.5129 8.83607 13.8328 8.77903 14.1322 8.66099C14.4315 8.54294 14.7042 8.36627 14.9343 8.14135C15.1644 7.91643 15.3472 7.6478 15.4721 7.35123C15.5969 7.05466 15.6612 6.73614 15.6612 6.41438C15.6612 6.09261 15.5969 5.77409 15.4721 5.47752C15.3472 5.18095 15.1644 4.91232 14.9343 4.6874C14.7042 4.46248 14.4315 4.28581 14.1322 4.16776C13.8328 4.04972 13.5129 3.99268 13.1913 4C12.5604 4.01435 11.9603 4.27503 11.5192 4.72625C11.0781 5.17747 10.8312 5.78339 10.8312 6.41438C10.8312 7.04536 11.0781 7.65128 11.5192 8.1025C11.9603 8.55372 12.5604 8.81439 13.1913 8.82875ZM25.8663 8.825C26.5111 8.825 27.1295 8.56885 27.5854 8.1129C28.0414 7.65696 28.2975 7.03856 28.2975 6.39375C28.2975 5.74894 28.0414 5.13054 27.5854 4.6746C27.1295 4.21865 26.5111 3.9625 25.8663 3.9625C25.2214 3.9625 24.603 4.21865 24.1471 4.6746C23.6911 5.13054 23.435 5.74894 23.435 6.39375C23.435 7.03856 23.6911 7.65696 24.1471 8.1129C24.603 8.56885 25.2214 8.825 25.8663 8.825Z" fill="#121212"/>
</svg>
