<svg width="20" height="19" viewBox="0 0 20 19" fill="none" xmlns="http://www.w3.org/2000/svg">
<path fill-rule="evenodd" clip-rule="evenodd" d="M6.41797 1.25C6.69797 0.66 7.30197 0.25 7.99997 0.25H12C12.698 0.25 13.301 0.66 13.582 1.25C14.265 1.256 14.798 1.287 15.274 1.473C15.8422 1.69527 16.3364 2.07301 16.7 2.563C17.067 3.057 17.24 3.69 17.476 4.561L18.218 7.283L18.498 8.124L18.522 8.154C19.423 9.308 18.994 11.024 18.136 14.455C17.59 16.638 17.318 17.729 16.504 18.365C15.69 19 14.565 19 12.315 19H7.68497C5.43497 19 4.30997 19 3.49597 18.365C2.68197 17.729 2.40897 16.638 1.86397 14.455C1.00597 11.024 0.576972 9.308 1.47797 8.154L1.50197 8.124L1.78197 7.283L2.52397 4.561C2.76097 3.69 2.93397 3.056 3.29997 2.562C3.6637 2.07238 4.15787 1.695 4.72597 1.473C5.20197 1.287 5.73397 1.255 6.41797 1.25ZM6.41997 2.753C5.75797 2.76 5.49197 2.785 5.27197 2.871C4.96594 2.99068 4.69978 3.19411 4.50397 3.458C4.32797 3.695 4.22397 4.026 3.93397 5.093L3.36397 7.182C4.38397 7 5.77797 7 7.68397 7H12.315C14.222 7 15.615 7 16.635 7.18L16.066 5.091C15.776 4.024 15.672 3.693 15.496 3.456C15.3002 3.19211 15.034 2.98868 14.728 2.869C14.508 2.783 14.242 2.758 13.58 2.751C13.438 3.04985 13.2142 3.30232 12.9345 3.47914C12.6549 3.65596 12.3308 3.74987 12 3.75H7.99997C7.66922 3.74996 7.34524 3.6562 7.0656 3.47956C6.78596 3.30293 6.5621 3.05166 6.41997 2.753Z" fill="white"/>
</svg>
