<svg width="31" height="28" viewBox="0 0 31 28" fill="none" xmlns="http://www.w3.org/2000/svg">
<g clip-path="url(#clip0_259_3031)">
<path d="M14.1709 0.5C15.3987 0.754717 16.6899 0.856604 17.8544 1.28962C22.5127 2.99623 25.3354 6.35849 26.4747 11.2618C26.0696 11.2618 25.7152 11.2618 25.424 11.2618C25.0063 10.2047 24.5886 9.17311 24.1962 8.12877C24.057 7.75943 23.8291 7.63208 23.4241 7.64481C22.3481 7.67028 21.2722 7.65755 20.1709 7.65755C20.6519 8.84198 21.1329 10.0009 21.6139 11.1726C20.5506 11.4528 20.5127 11.4019 20.1709 10.5741C19.8038 9.69528 19.3734 8.85472 18.943 8.00142C18.8671 7.84859 18.6392 7.67028 18.4747 7.67028C17.0696 7.64481 15.6519 7.65755 14.1709 7.65755C14.1709 8.88019 14.1709 10.0519 14.1709 11.2745C13.7785 11.2745 13.4494 11.2745 13.0443 11.2745C13.0443 10.1283 13.0443 8.94387 13.0443 7.67028C12.4114 7.67028 11.8544 7.67028 11.2975 7.67028C10.8797 7.67028 10.4494 7.67028 10.0316 7.67028C8.29747 7.67028 8.29747 7.67028 7.51266 9.275C6.89241 10.5613 6.47468 12.0642 6.46203 13.1085C7.91772 13.1085 9.38608 13.1085 10.8797 13.1085C10.8797 13.516 10.8797 13.8472 10.8797 14.2547C9.41139 14.2547 7.94304 14.2547 6.44937 14.2547C6.39873 15.4137 6.67722 16.4198 7.05696 17.4005C7.91772 19.7057 7.93038 19.7057 10.3354 19.7311C10.5 19.7311 10.6646 19.7311 10.8671 19.7311C10.8671 20.1132 10.8671 20.4443 10.8671 20.8519C10.3101 20.8519 9.74051 20.8519 8.96836 20.8519C9.47468 21.4505 9.81646 21.9726 10.2722 22.342C11.0063 22.9278 10.943 23.6665 10.7152 24.5453C9.82911 23.5137 8.90506 22.5075 8.05696 21.4377C7.74051 21.0302 7.43671 20.8392 6.90506 20.8646C5.98101 20.9156 5.05696 20.8774 4.13291 20.8774C4.09494 20.9283 4.0443 20.9792 4.00633 21.0302C4.70253 21.7179 5.36076 22.4439 6.09494 23.0679C7.24684 24.0486 8.58861 24.7108 10.019 25.1948C10.981 25.5132 10.981 25.5132 10.8291 26.5958C7.38608 25.7552 4.61392 23.934 2.6519 20.941C1.51266 19.1962 0.791139 17.2859 0.601266 15.1972C0.588608 15.0571 0.537975 14.917 0.5 14.7769C0.5 14.0509 0.5 13.3377 0.5 12.6118C0.537975 12.4972 0.588608 12.3698 0.601266 12.2552C1.25949 6.54953 5.20886 2.11745 10.8038 0.856604C11.4873 0.691038 12.2089 0.614623 12.9051 0.5C13.3228 0.5 13.7532 0.5 14.1709 0.5ZM5.06962 13.083C5.67722 11.2236 6.25949 9.44057 6.84177 7.65755C6.17089 7.65755 5.41139 7.65755 4.6519 7.65755C3.14557 7.65755 3.13291 7.65755 2.55063 9.03302C2.01899 10.3193 1.70253 11.6566 1.66456 13.083C2.90506 13.083 4.06962 13.083 5.06962 13.083ZM6.87975 19.7184C5.89241 17.9863 5.37342 16.2033 5.25949 14.3057C4.03165 14.3057 2.86709 14.3057 1.6519 14.3057C1.75316 16.1651 2.20886 17.8844 3.12025 19.4764C3.18354 19.591 3.37342 19.7184 3.5 19.7184C4.60127 19.7311 5.68987 19.7184 6.87975 19.7184ZM11.8418 1.81179C9.08228 2.0283 5.14557 4.38443 4.10759 6.53679C5.28481 6.53679 6.43671 6.53679 7.58861 6.52406C7.71519 6.52406 7.86709 6.42217 7.9557 6.32028C9.25949 4.81745 10.5633 3.30189 11.8418 1.81179ZM23.1329 6.53679C21.3228 3.82406 17.462 1.85 15.3608 1.86274C16.576 3.28915 17.8671 4.79198 19.1582 6.28208C19.2595 6.3967 19.4241 6.52406 19.5633 6.52406C20.7278 6.54953 21.8797 6.53679 23.1329 6.53679ZM12.9937 2.66509C12.9304 2.62689 12.8797 2.60142 12.8165 2.56321C11.6266 3.83679 10.4241 5.09764 9.12025 6.48585C10.5633 6.48585 11.7658 6.48585 12.9937 6.48585C12.9937 5.17406 12.9937 3.92594 12.9937 2.66509ZM14.3228 2.56321C14.2722 2.60142 14.2342 2.62689 14.1835 2.66509C14.1835 3.93868 14.1835 5.21226 14.1835 6.48585C15.4241 6.48585 16.6139 6.48585 17.8038 6.48585C17.8291 6.43491 17.8671 6.38396 17.8924 6.33302C16.7152 5.07217 15.5127 3.81132 14.3228 2.56321Z" fill="white"/>
<path d="M13.4114 27.5C13.424 25.5897 13.4367 23.692 13.4367 21.7816C13.4367 19.7439 13.424 17.7189 13.4367 15.6812C13.4494 14.3566 14.1835 13.6307 15.4747 13.6307C19.7025 13.6307 23.943 13.6434 28.1709 13.618C29.3228 13.6052 30.1202 14.0128 30.4873 15.1463C30.4873 18.7505 30.4873 22.3675 30.4873 25.9717C30.0949 27.0415 29.3228 27.4618 28.1962 27.4364C26.6899 27.3982 25.1709 27.4746 23.6519 27.5C20.2468 27.5 16.8291 27.5 13.4114 27.5ZM25.5633 14.7769C25.5633 17.8335 25.5633 20.801 25.5633 23.8576C24.538 23.3991 23.5759 23.0043 22.6392 22.5331C22.1835 22.3038 21.8038 22.3038 21.3481 22.5458C20.3861 23.0552 19.3987 23.501 18.3228 24.0232C18.3228 20.8647 18.3228 17.8463 18.3228 14.7769C17.3861 14.7769 16.5 14.7769 15.6139 14.7769C14.8038 14.7769 14.5759 15.0062 14.5759 15.8467C14.5759 18.967 14.5759 22.0873 14.5759 25.2076C14.5759 26.0609 14.7658 26.2647 15.6139 26.2647C19.8544 26.2647 24.0949 26.2647 28.3354 26.2647C29.1456 26.2647 29.3481 26.0609 29.3481 25.2458C29.3481 23.4246 29.3481 21.5906 29.3481 19.7694C29.3481 18.4066 29.3481 17.0566 29.3481 15.6939C29.3481 15.1845 29.1709 14.7897 28.6139 14.7769C27.6266 14.7642 26.6392 14.7769 25.5633 14.7769ZM24.2975 18.0373C24.2721 17.9864 24.2595 17.9227 24.2342 17.8717C23.8038 17.8717 23.3734 17.8717 22.8671 17.8717C22.8671 17.3114 22.8671 16.8147 22.8671 16.3434C22.2215 16.3434 21.6392 16.3434 21.019 16.3434C21.019 16.8656 21.019 17.3496 21.019 17.8717C20.538 17.8972 20.0949 17.9099 19.538 17.9482C20.4114 18.8779 21.1835 19.693 21.9683 20.5335C22.7785 19.6548 23.538 18.8397 24.2975 18.0373Z" fill="white"/>
</g>
<defs>
<clipPath id="clip0_259_3031">
<rect width="30" height="27" fill="white" transform="translate(0.5 0.5)"/>
</clipPath>
</defs>
</svg>
