<svg width="28" height="28" viewBox="0 0 28 28" fill="none" xmlns="http://www.w3.org/2000/svg">
<path d="M15.5004 7.99999C18.6549 7.99999 20.0004 9.34549 20.0004 12.5H23.0004C23.0004 7.66249 20.3379 4.99999 15.5004 4.99999V7.99999ZM20.6334 16.1645C20.3454 15.9022 19.9665 15.7622 19.5771 15.7743C19.1877 15.7863 18.8182 15.9494 18.5469 16.229L14.9574 19.9205C14.0934 19.7555 12.3564 19.214 10.5684 17.4305C8.78042 15.641 8.23892 13.8995 8.07842 13.0415L11.7669 9.45049C12.0465 9.17918 12.2096 8.80972 12.2217 8.4203C12.2337 8.03088 12.0938 7.65205 11.8314 7.36399L6.28892 1.26949C6.02649 0.980527 5.66174 0.805249 5.27215 0.780882C4.88256 0.756515 4.49882 0.88498 4.20242 1.13899L0.947423 3.93049C0.68809 4.19077 0.533302 4.53717 0.512423 4.90399C0.489923 5.27899 0.0609231 14.162 6.94892 21.053C12.9579 27.0605 20.4849 27.5 22.5579 27.5C22.8609 27.5 23.0469 27.491 23.0964 27.488C23.4629 27.4663 23.8088 27.311 24.0684 27.0515L26.8584 23.795C27.1126 23.4988 27.2413 23.1152 27.2173 22.7256C27.1932 22.336 27.0182 21.9711 26.7294 21.7085L20.6334 16.1645Z" fill="#6A65FF"/>
</svg>
