<svg width="24" height="21" viewBox="0 0 24 21" fill="none" xmlns="http://www.w3.org/2000/svg">
<path d="M21.75 19.5H2.25C1.005 19.5 0 18.495 0 17.25V3.75C0 2.505 1.005 1.5 2.25 1.5H21.75C22.995 1.5 24 2.505 24 3.75V17.25C24 18.495 22.995 19.5 21.75 19.5ZM2.25 3C1.83 3 1.5 3.33 1.5 3.75V17.25C1.5 17.67 1.83 18 2.25 18H21.75C22.17 18 22.5 17.67 22.5 17.25V3.75C22.5 3.33 22.17 3 21.75 3H2.25Z" fill="#121212"/>
<path d="M12 13.4399C10.95 13.4399 9.99 13.0199 9.27 12.2549L1.395 3.88493C1.11 3.58493 1.125 3.10493 1.425 2.81993C1.725 2.53493 2.205 2.54993 2.49 2.84993L10.365 11.2199C11.22 12.1349 12.78 12.1349 13.635 11.2199L21.51 2.86493C21.795 2.56493 22.275 2.54993 22.575 2.83493C22.875 3.11993 22.89 3.59993 22.605 3.89993L14.73 12.2699C14.01 13.0349 13.05 13.4549 12 13.4549V13.4399Z" fill="#121212"/>
</svg>
