<svg width="24" height="24" viewBox="0 0 24 24" fill="none" xmlns="http://www.w3.org/2000/svg">
<path d="M5.64917 8.88191C5.93924 8.59184 6.40951 8.59184 6.69957 8.88191L12.1164 14.2986L17.5332 8.88191C17.8232 8.59184 18.2934 8.59184 18.5835 8.88191C18.8736 9.17198 18.8736 9.64218 18.5835 9.93225L12.6415 15.8742C12.3515 16.1643 11.8813 16.1643 11.5912 15.8742L5.64919 9.93225C5.35912 9.64218 5.35912 9.17198 5.64919 8.88191H5.64917H5.64917Z" fill="#1A2F36"/>
<path d="M5.64917 8.88191C5.93924 8.59184 6.40951 8.59184 6.69957 8.88191L12.1164 14.2986L17.5332 8.88191C17.8232 8.59184 18.2934 8.59184 18.5835 8.88191C18.8736 9.17198 18.8736 9.64218 18.5835 9.93225L12.6415 15.8742C12.3515 16.1643 11.8813 16.1643 11.5912 15.8742L5.64919 9.93225C5.35912 9.64218 5.35912 9.17198 5.64919 8.88191H5.64917H5.64917Z" fill="white" fill-opacity="0.4"/>
</svg>
