<svg width="18" height="24" viewBox="0 0 18 24" fill="none" xmlns="http://www.w3.org/2000/svg">
<path fill-rule="evenodd" clip-rule="evenodd" d="M11.3684 0C11.7034 0 12.0247 0.133082 12.2616 0.36997C12.4985 0.606858 12.6316 0.928147 12.6316 1.26316C12.6323 2.42769 13.0348 3.55631 13.7713 4.45843C14.5077 5.36055 15.5329 5.9809 16.6737 6.21474C17.002 6.28174 17.2902 6.47642 17.475 6.75594C17.6598 7.03547 17.726 7.37695 17.6589 7.70526C17.5919 8.03357 17.3973 8.32182 17.1177 8.50659C16.8382 8.69137 16.4967 8.75753 16.1684 8.69053C14.8522 8.42153 13.6314 7.80676 12.6316 6.90947V17.6842C12.6316 18.9334 12.2612 20.1544 11.5672 21.1931C10.8732 22.2317 9.8868 23.0412 8.73274 23.5192C7.57868 23.9973 6.30879 24.1223 5.08364 23.8786C3.8585 23.6349 2.73313 23.0334 1.84985 22.1501C0.966576 21.2669 0.365055 20.1415 0.121359 18.9164C-0.122337 17.6912 0.00273653 16.4213 0.480764 15.2673C0.958791 14.1132 1.7683 13.1268 2.80693 12.4328C3.84555 11.7388 5.06665 11.3684 6.31579 11.3684C6.6508 11.3684 6.97209 11.5015 7.20898 11.7384C7.44587 11.9753 7.57895 12.2966 7.57895 12.6316C7.57895 12.9666 7.44587 13.2879 7.20898 13.5248C6.97209 13.7617 6.6508 13.8947 6.31579 13.8947C5.56631 13.8947 4.83365 14.117 4.21047 14.5334C3.5873 14.9498 3.10159 15.5416 2.81478 16.234C2.52796 16.9265 2.45291 17.6884 2.59913 18.4235C2.74535 19.1586 3.10626 19.8338 3.63623 20.3638C4.1662 20.8937 4.84142 21.2547 5.5765 21.4009C6.31159 21.5471 7.07353 21.472 7.76596 21.1852C8.4584 20.8984 9.05023 20.4127 9.46662 19.7895C9.88302 19.1663 10.1053 18.4337 10.1053 17.6842V1.26316C10.1053 0.928147 10.2383 0.606858 10.4752 0.36997C10.7121 0.133082 11.0334 0 11.3684 0Z" fill="#121212"/>
</svg>
