<svg width="31" height="24" viewBox="0 0 31 24" fill="none" xmlns="http://www.w3.org/2000/svg">
<path fill-rule="evenodd" clip-rule="evenodd" d="M1.01799 0.5355C0.791216 0.805723 0.666936 1.14723 0.666992 1.5V19.5C0.666992 20.6935 1.1411 21.8381 1.98501 22.682C2.82893 23.5259 3.97352 24 5.16699 24H26.167C27.3605 24 28.5051 23.5259 29.349 22.682C30.1929 21.8381 30.667 20.6935 30.667 19.5V1.515C30.6691 1.29138 30.6211 1.07012 30.5266 0.867426C30.4322 0.664729 30.2936 0.48572 30.121 0.3435C29.8541 0.12304 29.5192 0.00167874 29.173 1.34319e-08H2.16699C1.94799 -2.92922e-05 1.73164 0.047896 1.53314 0.140408C1.33464 0.232921 1.15881 0.367776 1.01799 0.5355ZM3.66699 5.121V19.5C3.66699 19.8978 3.82503 20.2794 4.10633 20.5607C4.38764 20.842 4.76917 21 5.16699 21H26.167C26.5648 21 26.9463 20.842 27.2277 20.5607C27.509 20.2794 27.667 19.8978 27.667 19.5V5.121L16.7275 16.0605C16.4462 16.3417 16.0647 16.4997 15.667 16.4997C15.2692 16.4997 14.8878 16.3417 14.6065 16.0605L3.66699 5.121Z" fill="#6A65FF"/>
</svg>
