<svg width="83" height="24" viewBox="0 0 83 24" fill="none" xmlns="http://www.w3.org/2000/svg">
<g clip-path="url(#clip0_276_2829)">
<path d="M82.4999 11.9197C82.4999 15.6338 82.4999 19.3453 82.4999 23.0594C82.4999 23.1027 82.4999 23.1435 82.4999 23.1868C82.4948 23.3704 82.4948 23.3729 82.3151 23.3755C81.9559 23.378 81.5967 23.3755 81.2375 23.3755C80.3061 23.3755 79.3747 23.3755 78.4407 23.3755C78.3817 23.3755 78.3201 23.3729 78.2611 23.3755C78.1661 23.3806 78.1174 23.3423 78.1251 23.2429C78.1302 23.1843 78.1251 23.1231 78.1251 23.0645C78.1251 20.9742 78.1251 18.8839 78.1251 16.7936C78.1251 16.7605 78.1251 16.7248 78.1251 16.6917C78.1225 16.5056 78.1225 16.503 77.9249 16.503C76.6497 16.503 75.377 16.503 74.1018 16.503C73.1704 16.503 72.239 16.503 71.305 16.503C71.2357 16.503 71.169 16.5056 71.0997 16.503C71.0279 16.5005 70.9868 16.5285 70.9894 16.605C70.992 16.6636 70.9894 16.7248 70.9894 16.7834C70.9894 18.8661 70.9894 20.9462 70.9894 23.0288C70.9894 23.0798 70.9894 23.1308 70.9894 23.1817C70.9843 23.3704 70.9843 23.3755 70.7867 23.3755C69.4601 23.378 68.1362 23.378 66.8096 23.3755C66.6223 23.3755 66.6197 23.3704 66.6197 23.1715C66.6172 23.0109 66.6197 22.8478 66.6197 22.6872C66.6197 15.3636 66.6197 8.03994 66.6197 0.713761C66.6197 0.377277 66.5787 0.410416 66.9174 0.410416C68.1823 0.410416 69.4473 0.410416 70.7149 0.410416C70.7482 0.410416 70.7841 0.410416 70.8175 0.410416C70.992 0.415514 70.992 0.415514 70.9971 0.6016C70.9997 0.66023 70.9971 0.721409 70.9971 0.780038C70.9971 4.46862 70.9971 8.15465 70.9971 11.8432C70.9971 12.1823 70.9483 12.1568 71.3101 12.1568C73.4911 12.1568 75.6695 12.1568 77.8505 12.1568C78.1892 12.1568 78.1559 12.1848 78.1559 11.8585C78.1559 10.4055 78.1559 8.95253 78.1507 7.49953C78.1456 5.34042 78.1379 3.18386 78.1302 1.02475C78.1302 0.871807 78.1302 0.718859 78.1225 0.565912C78.1148 0.441005 78.1687 0.39767 78.2867 0.407866C78.3304 0.412965 78.3714 0.407866 78.415 0.407866C79.6723 0.407866 80.9296 0.407866 82.1869 0.407866C82.2459 0.407866 82.3074 0.410416 82.3665 0.407866C82.4665 0.402768 82.505 0.453751 82.4999 0.548068C82.4973 0.591403 82.4999 0.632189 82.4999 0.675524C82.4999 4.42529 82.4999 8.1725 82.4999 11.9197Z" fill="#504544"/>
<path d="M4.83361 16.1538C4.91828 16.3348 4.92854 16.5081 4.94394 16.6738C4.99525 17.1709 5.14151 17.6348 5.36474 18.0758C5.69574 18.7259 6.20891 19.172 6.90169 19.4116C7.75356 19.7073 8.62083 19.7277 9.50092 19.5543C10.0474 19.4473 10.535 19.2255 10.9506 18.8508C11.2996 18.5347 11.5228 18.1421 11.6845 17.7062C12.0001 16.8625 12.036 15.9805 12.0386 15.0985C12.0463 11.8611 12.0411 8.62624 12.0411 5.38885C12.0411 5.33787 12.0411 5.28689 12.0386 5.2359C12.0386 5.17473 12.0078 5.14159 11.9462 5.14414C11.8769 5.14414 11.8102 5.14414 11.7409 5.14414C9.91916 5.14414 8.09996 5.14414 6.27819 5.14414C6.20891 5.14414 6.1422 5.14414 6.07292 5.14414C5.88305 5.13904 5.88048 5.13904 5.88048 4.94276C5.88048 3.56623 5.88048 2.1897 5.88048 0.813175C5.88048 0.609245 5.88305 0.606696 6.09345 0.606696C7.02486 0.606696 7.95627 0.606696 8.88768 0.606696C10.6658 0.606696 12.444 0.599049 14.2221 0.609245C14.8892 0.614343 15.5538 0.62454 16.2209 0.627089C16.4159 0.627089 16.4159 0.632187 16.4185 0.82847C16.4211 0.912591 16.4185 0.999261 16.4185 1.08338C16.4185 6.05417 16.4185 11.0224 16.4185 15.9932C16.4185 16.6993 16.3954 17.4029 16.2876 18.1013C16.1747 18.8406 15.9823 19.5594 15.6718 20.2426C15.1433 21.4024 14.3299 22.3074 13.2163 22.9421C12.5748 23.3066 11.8897 23.5641 11.1713 23.7196C10.3784 23.8904 9.57533 23.9924 8.75938 24C7.97936 24.0077 7.20447 23.9796 6.43471 23.8598C4.95677 23.6304 3.59942 23.1333 2.49353 22.0907C1.86746 21.4993 1.41587 20.7907 1.08744 19.9928C0.856511 19.432 0.712822 18.8508 0.60249 18.2594C0.546041 17.9509 0.522948 17.6374 0.494723 17.3238C0.479328 17.1378 0.48446 17.1301 0.674334 17.0842C1.14645 16.9721 1.62114 16.8625 2.09326 16.7579C2.54998 16.656 3.00927 16.5617 3.466 16.4597C3.92529 16.3628 4.37432 16.2583 4.83361 16.1538Z" fill="#504544"/>
<path d="M60.5154 14.9226C60.5154 12.5187 60.518 10.1149 60.5154 7.71108C60.5154 7.0738 60.4667 6.43907 60.3666 5.80943C60.2948 5.35824 60.1896 4.91469 60.0459 4.47624C59.8072 3.75229 59.466 3.08697 58.9939 2.48793C58.0676 1.31278 56.8129 0.667852 55.3939 0.308425C54.6909 0.129986 53.9699 0.0535127 53.2438 0.0152759C52.5484 -0.0204119 51.8582 -1.88709e-05 51.1705 0.058611C50.5188 0.114692 49.8748 0.23705 49.2436 0.430783C48.4276 0.680597 47.6758 1.03493 47.0036 1.55495C45.7873 2.49557 45.1356 3.77778 44.7969 5.23078C44.5916 6.10768 44.5352 7.00752 44.5378 7.90991C44.5403 12.8119 44.5378 17.7138 44.5378 22.6158C44.5378 22.7942 44.5352 22.9727 44.5378 23.1511C44.5403 23.3703 44.5403 23.3729 44.7687 23.3729C46.0773 23.3729 47.3833 23.3729 48.6919 23.3729C48.9151 23.3729 48.9151 23.3703 48.9177 23.1486C48.9177 23.1154 48.9177 23.0797 48.9177 23.0466C48.9177 20.941 48.9177 18.8329 48.9177 16.7273C48.9177 16.4724 48.8946 16.4775 49.1692 16.4775C49.1769 16.4775 49.1871 16.4775 49.1948 16.4775C51.4092 16.4775 53.6235 16.4775 55.8378 16.4775C56.1586 16.4775 56.1304 16.4469 56.1304 16.7605C56.1304 18.8584 56.1304 20.9563 56.1304 23.0543C56.1304 23.1129 56.1329 23.1741 56.1304 23.2327C56.1252 23.327 56.1637 23.3729 56.2638 23.3703C56.3998 23.3678 56.5383 23.3703 56.6743 23.3703C57.8803 23.3703 59.0862 23.3703 60.2896 23.3703C60.518 23.3703 60.518 23.3678 60.5205 23.1511C60.5205 23.1078 60.5205 23.067 60.5205 23.0237C60.5154 20.3267 60.5154 17.6246 60.5154 14.9226ZM55.7891 12.1568C55.7044 12.1568 55.6172 12.1568 55.5325 12.1568C54.5241 12.1568 53.5157 12.1568 52.5073 12.1568C51.4143 12.1568 50.3187 12.1568 49.2256 12.1568C49.1666 12.1568 49.105 12.1542 49.046 12.1568C48.9434 12.1619 48.9074 12.1134 48.9126 12.0191C48.9126 12.0115 48.9126 12.0013 48.9126 11.9936C48.9177 10.7114 48.8869 9.42919 48.9408 8.14698C48.9639 7.60402 49.0306 7.0636 49.1871 6.54103C49.4694 5.60296 50.0287 4.90704 50.9832 4.57311C51.5246 4.38447 52.084 4.33604 52.6485 4.35134C53.0641 4.36408 53.4772 4.39977 53.8878 4.51958C54.6858 4.75665 55.2733 5.23078 55.6326 5.97003C55.8789 6.4773 55.9918 7.02282 56.0508 7.58362C56.1304 8.34581 56.1175 9.11055 56.1201 9.87274C56.1227 10.5279 56.1227 11.1804 56.1201 11.8356C56.1227 12.2052 56.1586 12.1517 55.7891 12.1568Z" fill="#504544"/>
<path d="M38.4618 7.4919C38.4643 6.85207 38.4181 6.21734 38.2976 5.5928C38.1102 4.61394 37.7921 3.67586 37.2225 2.8423C36.6169 1.9552 35.8164 1.29243 34.8388 0.833586C34.2178 0.542986 33.5687 0.344154 32.9015 0.206502C32.5346 0.130028 32.16 0.0688491 31.7879 0.0484561C31.0208 0.00257185 30.2536 -0.0229194 29.4838 0.0331613C28.9116 0.0739473 28.3497 0.155519 27.7903 0.277877C26.9333 0.466512 26.1302 0.772407 25.3938 1.24909C24.5727 1.78186 23.9338 2.47522 23.4643 3.33428C23.1102 3.98175 22.8844 4.67002 22.7253 5.38122C22.6509 5.71261 22.5893 6.04909 22.5714 6.38558C22.5406 6.95403 22.5046 7.51994 22.5098 8.09094C22.52 9.3808 22.5123 10.6732 22.5123 11.9631C22.5123 13.4416 22.5098 14.92 22.5149 16.396C22.5175 16.8115 22.52 17.2321 22.5714 17.6425C22.6945 18.6035 22.9023 19.5416 23.3411 20.4185C23.803 21.3413 24.4444 22.1009 25.3014 22.6796C26.2431 23.3169 27.2977 23.6584 28.4087 23.8369C29.1425 23.9541 29.8815 24 30.6282 23.9924C31.6314 23.9796 32.6167 23.8726 33.5892 23.6126C34.4282 23.3857 35.2083 23.0416 35.9036 22.5241C36.7709 21.8817 37.3918 21.0507 37.8075 20.0565C38.0076 19.5773 38.1564 19.0828 38.2591 18.578C38.3668 18.0478 38.4566 17.51 38.4566 16.9644C38.4566 13.8137 38.4541 10.6528 38.4618 7.4919ZM34.0895 12.0191C34.087 12.0191 34.087 12.0191 34.0844 12.0191C34.0844 13.1076 34.0921 14.1935 34.0818 15.282C34.0767 15.876 34.0587 16.4725 33.9304 17.0537C33.756 17.8388 33.4506 18.5525 32.7655 19.0471C32.3114 19.3734 31.7931 19.534 31.2491 19.6104C30.4332 19.7226 29.6249 19.6818 28.8526 19.3887C28.1342 19.1159 27.6261 18.6112 27.3259 17.9051C27.0154 17.1735 26.9282 16.4036 26.9128 15.6185C26.8743 13.6735 26.9077 11.7285 26.8948 9.78356C26.8897 9.12079 26.8923 8.45802 26.9385 7.79779C26.9846 7.11208 27.1206 6.43401 27.4593 5.82222C27.8237 5.1671 28.3805 4.75414 29.0989 4.53491C29.8199 4.31569 30.5538 4.30804 31.2825 4.40236C32.3319 4.53746 33.1684 5.02689 33.6302 6.02105C33.8304 6.4544 33.933 6.91834 34.0023 7.38993C34.0818 7.94564 34.0844 8.50645 34.0895 9.06726C34.0947 10.0461 34.0895 11.0326 34.0895 12.0191Z" fill="#504544"/>
</g>
<defs>
<clipPath id="clip0_276_2829">
<rect width="82" height="24" fill="white" transform="translate(0.5)"/>
</clipPath>
</defs>
</svg>
