<svg width="130" height="26" viewBox="0 0 130 26" fill="none" xmlns="http://www.w3.org/2000/svg">
<g clip-path="url(#clip0_276_2774)">
<path d="M114.844 14.0591C115.222 14.0027 115.607 13.9463 115.992 13.8779C116.212 13.8376 116.432 13.8296 116.656 13.8296C120.48 13.8296 124.304 13.8255 128.124 13.8255C128.191 13.8255 128.254 13.8296 128.321 13.8255C128.47 13.8135 128.529 13.8739 128.529 14.0309C128.521 14.6471 128.529 15.2672 128.517 15.8834C128.513 16.125 128.352 16.2861 128.093 16.3223C127.963 16.3384 127.834 16.3344 127.7 16.3344C123.577 16.3344 119.45 16.3344 115.328 16.3344C115.249 16.3344 115.171 16.3344 115.092 16.3344C114.801 16.3425 114.793 16.3425 114.793 16.6525C114.793 17.9412 114.789 19.2299 114.797 20.5185C114.797 20.7561 114.825 21.0018 114.88 21.2353C115.1 22.1897 115.811 22.7696 116.841 22.8462C116.998 22.8582 117.155 22.8542 117.312 22.8542C121.07 22.8542 124.827 22.8542 128.584 22.8542C128.651 22.8542 128.714 22.8542 128.781 22.8542C129.413 22.8542 129.512 22.967 129.496 23.6032C129.484 24.0986 129.484 24.5979 129.496 25.0933C129.5 25.3067 129.433 25.3872 129.229 25.359C129.15 25.347 129.072 25.359 128.993 25.359C126.336 25.3631 123.675 25.3671 121.019 25.3671C119.643 25.3671 118.267 25.351 116.896 25.359C114.703 25.3752 112.691 23.8449 112.223 21.4931C112.14 21.0863 112.105 20.6715 112.105 20.2527C112.105 16.8297 112.105 13.4067 112.105 9.98775C112.105 8.8199 112.36 7.72454 113.04 6.7661C113.921 5.52576 115.135 4.85727 116.617 4.82505C120.767 4.73646 124.917 4.78881 129.068 4.80895C129.119 4.80895 129.174 4.817 129.225 4.80895C129.441 4.78076 129.496 4.89754 129.492 5.09487C129.484 5.57811 129.492 6.06136 129.48 6.54461C129.468 7.16075 129.331 7.29767 128.741 7.30572C128.152 7.3178 127.562 7.32586 126.973 7.32586C123.711 7.32586 120.453 7.32586 117.191 7.32586C116.876 7.32586 116.566 7.35405 116.259 7.44667C115.485 7.68427 115.029 8.23195 114.852 9.02528C114.801 9.24677 114.785 9.47631 114.785 9.70585C114.777 11.063 114.781 12.4161 114.781 13.7732C114.797 13.8578 114.774 13.9544 114.844 14.0591Z" fill="#221F1F"/>
<path d="M80.7936 13.0684C80.7936 15.5531 80.7936 18.0338 80.7936 20.5185C80.7936 22.2018 80.1569 23.563 78.8324 24.5697C78.0425 25.1738 77.1385 25.4597 76.156 25.4678C74.3088 25.4799 72.4655 25.496 70.6184 25.496C69.3489 25.496 68.0795 25.4799 66.81 25.4678C64.4441 25.4436 62.5654 23.8288 62.1528 21.4488C62.0977 21.1306 62.082 20.8085 62.082 20.4863C62.082 15.4001 62.082 10.3099 62.082 5.22373C62.082 5.18346 62.082 5.14319 62.082 5.10292C62.0899 4.80089 62.0899 4.80089 62.3886 4.79686C62.9506 4.78881 63.5126 4.7727 64.0786 4.80492C64.4912 4.82908 64.7585 5.13514 64.7506 5.57006C64.7467 5.70295 64.7428 5.83987 64.7428 5.97277C64.7428 10.8052 64.7428 15.6377 64.7428 20.4702C64.7428 20.8326 64.7663 21.191 64.8725 21.5414C64.9825 21.8998 65.1869 22.1857 65.4895 22.3991C65.9847 22.7495 66.5192 22.9468 67.1402 22.9428C68.9873 22.9307 70.8306 22.9589 72.6778 22.9629C73.8175 22.9629 74.9573 22.9468 76.0931 22.9388C77.0953 22.9307 77.8617 22.2904 78.0818 21.2796C78.1486 20.9615 78.1604 20.6434 78.1604 20.3212C78.1604 15.5169 78.1604 10.7086 78.1604 5.90431C78.1604 5.71503 78.1564 5.52979 78.1682 5.34052C78.1918 4.97003 78.3215 4.82505 78.6791 4.817C79.3198 4.79686 79.9604 4.80894 80.6049 4.80089C80.77 4.79686 80.8054 4.88143 80.8014 5.02238C80.7975 5.13111 80.8014 5.23581 80.8014 5.34454C80.7936 7.91381 80.7936 10.4911 80.7936 13.0684Z" fill="#221F1F"/>
<path d="M28.4084 13.8417C28.094 13.8699 27.8621 13.9907 27.6184 14.0793C23.4682 15.6418 19.9231 18.1667 16.7515 21.2837C16.1187 21.9079 15.5017 22.5482 14.9161 23.2167C14.9004 23.2368 14.8847 23.2569 14.865 23.2771C14.5467 23.6113 14.2008 23.5388 14.0672 23.0878C13.8589 22.3831 13.6978 21.6622 13.5563 20.9414C13.0532 18.36 12.9471 15.7465 13.1082 13.1289C13.3244 9.56493 14.0004 6.08555 15.1283 2.70685C15.2502 2.34038 15.3838 1.97392 15.5528 1.62357C15.6904 1.33362 15.8476 1.05575 16.0716 0.82218C16.5039 0.379203 17.0305 0.387257 17.4471 0.846342C17.6947 1.11616 17.8402 1.44637 17.9659 1.78465C18.1585 2.30011 18.2843 2.83168 18.4258 3.36326C18.972 5.43719 19.4044 7.53529 19.6598 9.66561C19.8406 11.1717 19.9074 12.6859 19.8288 14.2041C19.817 14.4175 19.7895 14.631 19.7581 14.8444C19.7148 15.1545 19.5537 15.3236 19.3179 15.3156C19.0782 15.3075 18.9288 15.1344 18.9052 14.8203C18.8266 13.8054 18.7244 12.7906 18.5869 11.7798C18.3393 9.95153 17.848 8.18768 17.1799 6.47618C17.0934 6.25469 17.003 6.0332 16.8065 5.86004C16.5118 6.1379 16.3585 6.49228 16.2131 6.85069C15.8554 7.71651 15.5921 8.61455 15.3563 9.52064C14.7668 11.8483 14.472 14.2122 14.4523 16.6083C14.4406 18.0862 14.5349 19.5561 14.8218 21.0098C14.8375 21.0864 14.8257 21.175 14.9161 21.2233C15.0497 21.187 15.1126 21.0622 15.203 20.9696C17.9856 18.0862 21.0275 15.533 24.4428 13.4672C26.2822 12.3557 28.2001 11.4013 30.2084 10.6442C30.6014 10.4952 31.0023 10.3784 31.4228 10.326C31.6233 10.3019 31.8158 10.314 32.0084 10.3623C32.4918 10.4871 32.7237 10.8657 32.6215 11.361C32.5311 11.7718 32.3464 12.1382 32.1381 12.5007C31.3757 13.8256 30.4246 15.0055 29.4145 16.1331C27.2136 18.5896 24.7769 20.7884 22.2655 22.9066C21.3262 23.6999 20.3673 24.4731 19.4004 25.2262C19.3061 25.2987 19.2157 25.3752 19.1135 25.4356C18.9131 25.5483 18.7205 25.5121 18.583 25.347C18.4572 25.194 18.4533 24.9564 18.5908 24.7953C18.7087 24.6543 18.8502 24.5295 18.9838 24.4006C20.9529 22.4878 22.9022 20.5548 24.7573 18.5292C25.8931 17.2848 26.9857 15.9962 27.9643 14.6149C28.1215 14.3853 28.2826 14.1598 28.4084 13.8417Z" fill="#1D8E46"/>
<path d="M49.2422 25.351C47.2928 25.351 45.3395 25.3309 43.3902 25.355C41.1657 25.3832 38.8901 23.8006 38.5639 20.9454C38.5443 20.7722 38.5482 20.5991 38.5482 20.4219C38.5482 16.866 38.5364 13.3101 38.5521 9.7542C38.56 8.18364 39.1259 6.85069 40.3325 5.84392C41.15 5.15932 42.1089 4.82507 43.1622 4.80897C47.2732 4.74051 51.3841 4.78883 55.4951 4.79286C55.5737 4.79286 55.6523 4.79689 55.7309 4.80091C55.8567 4.80494 55.9235 4.85729 55.9195 4.99421C55.9156 5.59827 55.9235 6.20233 55.9078 6.80639C55.8999 7.05204 55.6641 7.26547 55.3693 7.29769C55.1374 7.32588 54.8977 7.32991 54.6619 7.32991C50.9715 7.32991 47.2771 7.32588 43.5867 7.32185C43.3233 7.32185 43.064 7.35004 42.8085 7.41447C41.8613 7.6561 41.319 8.37694 41.2443 9.47633C41.2286 9.68976 41.2325 9.90723 41.2325 10.1207C41.2364 13.5557 41.2404 16.9908 41.2443 20.4259C41.2443 20.5991 41.2521 20.7763 41.2757 20.9454C41.4408 22.0971 42.1364 22.7576 43.2723 22.8421C43.453 22.8542 43.6378 22.8502 43.8225 22.8502C47.5915 22.8502 51.3645 22.8502 55.1335 22.8502C55.8842 22.8502 55.9195 22.8864 55.9274 23.6717C55.9313 24.155 55.9195 24.6382 55.9195 25.1215C55.9195 25.2906 55.8567 25.3591 55.6877 25.355C55.385 25.347 55.0863 25.351 54.7837 25.351C52.9365 25.351 51.0894 25.351 49.2422 25.351Z" fill="#221F1F"/>
<path d="M4.59936 13.8658C4.76836 14.2484 4.97273 14.5263 5.17316 14.8082C6.65877 16.8781 8.34874 18.7627 10.1055 20.591C11.4103 21.9481 12.7466 23.273 14.0986 24.5818C14.185 24.6624 14.2754 24.7469 14.3423 24.8436C14.4562 25.0047 14.4405 25.1738 14.3305 25.3309C14.2204 25.4879 14.02 25.5483 13.8392 25.4678C13.7684 25.4356 13.7016 25.3872 13.6388 25.3389C10.1291 22.5441 6.74523 19.6084 3.72686 16.2539C2.81899 15.2471 1.97401 14.188 1.25085 13.0362C1.01111 12.6537 0.787094 12.259 0.633817 11.8281C0.555214 11.6147 0.496261 11.3972 0.504121 11.1637C0.515912 10.8012 0.680979 10.5596 1.01897 10.4428C1.25871 10.3623 1.50632 10.3623 1.75392 10.4026C2.5596 10.5354 3.32205 10.8133 4.06879 11.1395C5.8806 11.9288 7.55878 12.9718 9.20159 14.0752C10.1881 14.7357 11.151 15.4324 12.0903 16.1572C12.1728 16.2217 12.2632 16.2821 12.3379 16.3545C12.4911 16.5116 12.5108 16.7371 12.3968 16.9063C12.2907 17.0714 12.1138 17.1358 11.9134 17.0633C11.7523 17.0069 11.6029 16.9264 11.4496 16.8458C9.51207 15.8069 7.52341 14.8887 5.47186 14.1115C5.20854 14.0108 4.94522 13.898 4.59936 13.8658Z" fill="#1D8E46"/>
<path d="M102.237 16.6888C102.677 16.4995 103.097 16.3626 103.498 16.1693C105.125 15.3719 105.935 14.035 105.966 12.2026C105.986 11.1838 106.002 10.1609 105.962 9.14207C105.892 7.27351 104.988 5.96069 103.325 5.20361C102.744 4.93782 102.127 4.82103 101.494 4.81298C100.275 4.79285 99.0571 4.78882 97.8427 4.78882C94.9893 4.78882 92.1321 4.79285 89.2788 4.8009C89.1216 4.8009 88.9644 4.8009 88.8072 4.81701C87.9858 4.90963 87.4749 5.40093 87.3294 6.23856C87.2941 6.45199 87.2744 6.6614 87.2744 6.87886C87.2744 12.7825 87.2744 18.6902 87.2783 24.5939C87.2783 24.7671 87.3019 24.9402 87.3019 25.1174C87.3059 25.2986 87.3766 25.3711 87.5653 25.3631C88.0998 25.351 88.6382 25.359 89.1766 25.359C89.943 25.359 89.9705 25.3349 89.9705 24.5456C89.9705 21.9159 89.9705 19.2862 89.9705 16.6566C89.9705 16.5317 89.9351 16.3948 90.0216 16.2337C90.56 16.7693 91.2164 16.8297 91.8963 16.8176C92.6037 16.8056 93.3112 16.8136 94.0186 16.8136C95.63 16.8136 97.2413 16.8176 98.8488 16.8015C99.2654 16.7975 99.5562 16.9425 99.7173 17.3412C99.7331 17.3774 99.7527 17.4137 99.7724 17.4499C100.987 19.8057 102.205 22.1656 103.423 24.5214C103.514 24.6986 103.616 24.8718 103.726 25.0369C103.868 25.2463 104.06 25.347 104.323 25.355C105.043 25.3792 105.762 25.3631 106.481 25.359C106.532 25.359 106.587 25.3631 106.611 25.2543C105.168 22.4153 103.706 19.5601 102.237 16.6888ZM100.877 14.2846C97.5754 14.2846 94.278 14.2846 90.9766 14.2846C90.7801 14.2846 90.5836 14.2846 90.391 14.2484C90.171 14.2041 90.0373 14.0833 90.0138 13.8537C89.9941 13.6685 89.9744 13.4792 89.9744 13.294C89.9705 11.6429 89.9705 9.99178 89.9744 8.34069C89.9744 8.13933 89.9941 7.93798 90.0177 7.74065C90.0413 7.53125 90.167 7.41043 90.3714 7.36211C90.5129 7.32989 90.6544 7.32587 90.7998 7.32587C92.5133 7.32587 94.2308 7.32587 95.9444 7.32587C97.6461 7.32587 99.3479 7.32587 101.05 7.32587C101.301 7.32587 101.549 7.35406 101.789 7.41849C102.653 7.66011 103.235 8.3729 103.278 9.36759C103.321 10.3301 103.329 11.3006 103.278 12.263C103.215 13.447 102.406 14.2121 101.227 14.2846C101.113 14.2887 100.991 14.2846 100.877 14.2846Z" fill="#221F1F"/>
</g>
<defs>
<clipPath id="clip0_276_2774">
<rect width="129" height="25" fill="white" transform="translate(0.5 0.5)"/>
</clipPath>
</defs>
</svg>
