<svg width="195" height="24" viewBox="0 0 195 24" fill="none" xmlns="http://www.w3.org/2000/svg">
<g clip-path="url(#clip0_276_2843)">
<path d="M131.612 21.1798C131.929 21.1798 132.178 21.1798 132.428 21.1798C134.736 21.1686 137.05 21.1631 139.358 21.1519C139.486 21.1519 139.619 21.1463 139.747 21.1575C140.202 21.1909 140.507 21.503 140.529 21.9378C140.551 22.3948 140.24 22.7571 139.78 22.8128C139.652 22.8296 139.519 22.8184 139.392 22.8184C133.46 22.8184 127.523 22.8184 121.592 22.8184C121.442 22.8184 121.292 22.8296 121.148 22.8017C120.721 22.7237 120.438 22.3335 120.471 21.9155C120.504 21.503 120.809 21.2021 121.226 21.1631C121.37 21.1519 121.52 21.1575 121.669 21.1575C123.85 21.1575 126.031 21.1575 128.211 21.1575C128.477 21.1575 128.694 21.1352 128.899 20.9122C130.225 19.4854 131.563 18.0753 132.894 16.6596C132.944 16.6094 132.983 16.5481 133.027 16.4868C132.9 16.3307 132.739 16.4032 132.606 16.4032C130.464 16.3976 128.317 16.3753 126.175 16.4088C124.727 16.4311 123.894 15.7845 123.434 14.5249C123.118 13.6554 122.812 12.7803 122.463 11.922C121.969 10.7181 122.918 9.74828 123.967 9.765C127.273 9.81517 130.586 9.78172 133.893 9.78172C134.043 9.78172 134.187 9.7873 134.337 9.78172C134.709 9.765 134.808 9.6814 134.814 9.32469C134.825 8.47192 134.814 7.61359 134.82 6.76082C134.82 6.54345 134.736 6.45427 134.525 6.471C134.398 6.47657 134.265 6.471 134.137 6.471C130.697 6.471 127.262 6.471 123.822 6.471C123.656 6.471 123.489 6.48214 123.323 6.46542C122.873 6.42641 122.574 6.10314 122.563 5.66282C122.557 5.2225 122.84 4.89366 123.295 4.83235C123.423 4.81563 123.556 4.8212 123.684 4.8212C127.584 4.8212 131.485 4.8212 135.385 4.8212C135.607 4.8212 135.829 4.83235 136.046 4.87137C136.773 5.01628 137.255 5.56807 137.261 6.31493C137.278 7.52441 137.278 8.72831 137.261 9.93779C137.25 10.7683 136.645 11.3591 135.774 11.4427C135.63 11.4538 135.48 11.4482 135.33 11.4482C132.04 11.4482 128.749 11.4482 125.459 11.4482C124.804 11.4482 124.804 11.4482 125.037 12.0725C125.304 12.7859 125.565 13.4993 125.831 14.2072C126.031 14.7311 126.031 14.7367 126.585 14.7367C129.282 14.7367 131.984 14.7367 134.681 14.7367C134.864 14.7367 135.053 14.7311 135.236 14.7478C135.718 14.798 136.079 15.0544 136.24 15.5114C136.406 15.9796 136.329 16.4255 135.963 16.7933C135.213 17.5346 134.459 18.2759 133.71 19.0228C133.033 19.7139 132.356 20.4162 131.612 21.1798Z" fill="#222222"/>
<path d="M13.85 18.8667C14.1052 18.811 14.1884 18.6326 14.3105 18.51C17.512 15.3052 21.0409 12.5462 25.1247 10.5453C26.1567 10.0381 27.1998 9.57548 28.2818 9.19648C28.6868 9.05714 29.0974 8.94566 29.5247 8.96796C30.2016 9.0014 30.4846 9.39713 30.3181 10.0548C30.2349 10.3837 30.074 10.6735 29.902 10.9633C29.1862 12.1839 28.2929 13.2708 27.333 14.3075C24.7085 17.15 21.7789 19.6414 18.7438 22.0214C18.483 22.2276 18.2222 22.4338 17.9504 22.6289C17.6674 22.8351 17.4676 22.8351 17.3123 22.6512C17.1569 22.4728 17.1847 22.261 17.4343 22.0214C18.2833 21.1965 19.1489 20.3827 19.9922 19.5523C21.9953 17.5736 23.9817 15.5783 25.6906 13.321C25.9458 12.981 26.2122 12.6521 26.4175 12.2341C26.1345 12.1672 25.9347 12.3121 25.7239 12.3846C22.1173 13.7167 18.9824 15.8124 16.1748 18.4264C15.4147 19.1342 14.6767 19.8588 13.9831 20.6335C13.9609 20.6614 13.9332 20.6893 13.9055 20.7171C13.5393 21.085 13.2618 21.0293 13.1065 20.5388C12.8734 19.8142 12.7125 19.0674 12.5849 18.3205C11.969 14.8481 12.0744 11.3758 12.6459 7.9034C12.9844 5.86903 13.4671 3.8681 14.144 1.92291C14.3105 1.44915 14.4825 0.980964 14.7766 0.562943C15.3203 -0.206217 15.9917 -0.183922 16.4855 0.618679C16.6298 0.858344 16.7408 1.11473 16.824 1.38226C17.7673 4.57595 18.4664 7.81422 18.5108 11.164C18.5163 11.7213 18.4775 12.2787 18.4553 12.8361C18.4497 12.9475 18.4331 13.059 18.4109 13.1649C18.3665 13.3655 18.25 13.4993 18.028 13.4993C17.8116 13.4993 17.6785 13.3823 17.6452 13.1705C17.6119 12.9698 17.6008 12.7636 17.5842 12.5629C17.4288 10.6735 17.1736 8.80075 16.5743 6.9949C16.369 6.3818 16.1915 5.75198 15.8863 5.1779C15.7365 4.89364 15.6533 4.89364 15.4646 5.16675C15.2316 5.50674 15.0818 5.88575 14.943 6.27033C14.1773 8.43289 13.7279 10.6623 13.5614 12.9531C13.4394 14.6085 13.4616 16.2527 13.6891 17.8969C13.7279 18.209 13.7945 18.5267 13.85 18.8667Z" fill="#189046"/>
<path d="M88.0343 14.2294C90.7698 14.2294 93.5052 14.2294 96.2406 14.2294C96.4237 14.2294 96.6124 14.2239 96.7955 14.2406C97.2227 14.2852 97.5224 14.5862 97.5501 14.993C97.5834 15.4222 97.3115 15.7956 96.8787 15.8792C96.7178 15.9127 96.5458 15.9015 96.3794 15.9015C94.2154 15.9015 92.0515 15.9015 89.8875 15.9015C89.3993 15.9015 89.4437 15.8848 89.4437 16.353C89.4437 16.8379 89.4603 17.3172 89.4381 17.8021C89.4104 18.4208 88.9831 18.889 88.395 19.0005C87.8901 19.0952 87.3574 18.811 87.1022 18.3372C86.9912 18.131 86.9745 17.9136 86.9745 17.6907C86.9745 17.189 86.9634 16.6874 86.9801 16.1858C86.9856 15.9628 86.8913 15.896 86.686 15.896C85.5597 15.9015 84.4278 15.9015 83.3014 15.896C83.0961 15.896 83.0073 15.9517 83.0073 16.1746C83.0184 17.3284 82.9907 18.4765 83.024 19.6303C83.0462 20.4719 83.7342 21.1184 84.5665 21.1686C84.7496 21.1797 84.9382 21.1742 85.1213 21.1742C88.4116 21.1742 91.7019 21.1742 94.9922 21.1742C95.192 21.1742 95.3973 21.1574 95.597 21.2188C96.0076 21.347 96.2462 21.6869 96.2074 22.0994C96.1741 22.484 95.8966 22.7738 95.4971 22.8351C95.3695 22.8518 95.2364 22.8518 95.1087 22.8518C91.4689 22.8518 87.8235 22.8463 84.1836 22.8518C82.6744 22.8518 81.5591 22.2164 80.8656 20.8565C80.6103 20.3493 80.5327 19.7975 80.5327 19.2345C80.5327 18.248 80.5271 17.2671 80.5382 16.2805C80.5438 16.0019 80.4772 15.8681 80.172 15.8904C79.8946 15.9127 79.6171 15.9071 79.3397 15.8904C78.8348 15.8569 78.4852 15.4947 78.4908 15.0376C78.4963 14.575 78.8459 14.235 79.3675 14.2294C80.5327 14.2183 81.6979 14.2239 82.8631 14.2239C84.5942 14.2294 86.3143 14.2294 88.0343 14.2294Z" fill="#222222"/>
<path d="M156.398 13.5718C156.398 16.1133 156.398 18.6605 156.398 21.202C156.398 21.386 156.404 21.5755 156.387 21.7594C156.32 22.3892 155.821 22.8407 155.194 22.8518C154.556 22.863 154.007 22.3948 153.935 21.7594C153.918 21.5922 153.929 21.425 153.929 21.2578C153.929 16.4143 153.929 11.5653 153.929 6.72178C153.929 6.61031 153.929 6.49884 153.929 6.38736C153.935 5.9582 153.957 5.96377 153.507 5.96377C153.063 5.96377 152.62 5.98049 152.176 5.9582C151.782 5.94148 151.482 5.69624 151.388 5.36182C151.288 5.00511 151.421 4.64282 151.721 4.43102C151.865 4.3307 152.026 4.29726 152.192 4.29726C153.208 4.29726 154.223 4.27496 155.238 4.30841C155.91 4.3307 156.348 4.8156 156.393 5.49559C156.404 5.66279 156.398 5.83 156.398 5.99721C156.398 8.52206 156.398 11.0469 156.398 13.5718Z" fill="#222222"/>
<path d="M160.437 13.5717C160.437 16.13 160.437 18.6939 160.437 21.2522C160.437 21.4528 160.448 21.6591 160.398 21.8597C160.254 22.4672 159.771 22.8574 159.167 22.8462C158.579 22.8351 158.118 22.4617 157.99 21.8653C157.952 21.6869 157.94 21.4974 157.94 21.3135C157.94 16.1523 157.94 10.9967 157.94 5.83555C157.94 5.65163 157.946 5.46212 157.985 5.28377C158.118 4.6651 158.601 4.28609 159.211 4.29724C159.816 4.30838 160.293 4.70968 160.404 5.32836C160.437 5.50671 160.437 5.69621 160.437 5.88014C160.437 8.44958 160.437 11.0079 160.437 13.5717Z" fill="#222222"/>
<path d="M4.37288 12.2452C4.50605 12.5797 4.68915 12.8137 4.8667 13.0478C6.52018 15.3163 8.45662 17.3395 10.443 19.3126C11.3252 20.1876 12.2241 21.0404 13.1119 21.9043C13.1896 21.9824 13.2728 22.0604 13.3449 22.144C13.4836 22.3112 13.4892 22.4895 13.3449 22.6456C13.2062 22.8017 13.0286 22.8295 12.8455 22.7181C12.7845 22.6791 12.7235 22.6345 12.668 22.5899C9.28336 19.948 6.02635 17.1835 3.16329 13.9786C2.34766 13.0646 1.59305 12.1059 0.971611 11.0413C0.771863 10.7013 0.605406 10.3502 0.522178 9.96563C0.411206 9.42499 0.688635 9.05713 1.23794 9.00697C1.63189 8.97353 2.00919 9.07942 2.38095 9.17975C3.77919 9.5699 5.0609 10.2332 6.30933 10.9522C8.01274 11.9275 9.63292 13.0311 11.2032 14.2072C11.3197 14.2963 11.4418 14.3855 11.5416 14.497C11.647 14.614 11.6637 14.7645 11.5805 14.9094C11.4861 15.0766 11.3419 15.1547 11.1643 15.1045C10.9868 15.0543 10.8203 14.9707 10.6594 14.8816C8.93935 13.9731 7.17491 13.176 5.35498 12.4905C5.09419 12.3902 4.83341 12.3066 4.56708 12.2229C4.52824 12.2174 4.47276 12.2397 4.37288 12.2452Z" fill="#199046"/>
<path d="M45.0718 6.46538C44.8222 6.46538 44.6446 6.46538 44.4671 6.46538C42.1921 6.46538 39.9172 6.46538 37.6479 6.46538C37.4814 6.46538 37.315 6.47653 37.1485 6.45424C36.7545 6.40407 36.4716 6.10867 36.4383 5.71852C36.405 5.3005 36.6436 4.94379 37.0486 4.84903C37.2095 4.81002 37.376 4.81559 37.5424 4.81559C40.8716 4.81559 44.1952 4.81559 47.5243 4.81559C47.6519 4.81559 47.7851 4.80444 47.9127 4.82674C48.2567 4.88248 48.4842 5.08313 48.5841 5.41197C48.6784 5.72409 48.6007 6.00277 48.3732 6.23129C48.2678 6.33719 48.1458 6.41522 48.0237 6.5044C44.4837 9.0181 40.9382 11.5374 37.3982 14.0567C37.2928 14.1291 37.1873 14.2127 37.0764 14.274C36.7102 14.4635 36.2663 14.3688 36.0277 14.0567C35.7946 13.7501 35.8113 13.2875 36.0943 12.9809C36.2163 12.8472 36.3772 12.7413 36.5271 12.6354C39.2126 10.7236 41.8925 8.81745 44.578 6.9057C44.7334 6.7998 44.9165 6.71062 45.0718 6.46538Z" fill="#222222"/>
<path d="M188.652 8.65024C187.542 8.65024 186.433 8.65024 185.328 8.65024C184.873 8.65024 184.868 8.65581 184.868 9.09613C184.862 9.80398 184.868 10.5063 184.868 11.2141C184.868 11.3423 184.879 11.4761 184.862 11.6043C184.818 11.9331 184.579 12.1393 184.263 12.1393C183.947 12.1393 183.714 11.9275 183.669 11.5931C183.653 11.4816 183.664 11.3702 183.664 11.2587C183.664 9.23547 183.664 7.21225 183.664 5.18902C183.664 5.07755 183.658 4.96608 183.669 4.85461C183.714 4.52019 183.941 4.31397 184.263 4.30839C184.579 4.30839 184.818 4.51462 184.862 4.84346C184.884 5.01067 184.868 5.17788 184.873 5.34509C184.873 5.95818 184.879 6.57128 184.873 7.18438C184.873 7.36831 184.929 7.46863 185.123 7.45191C185.217 7.44634 185.306 7.45191 185.4 7.45191C187.542 7.45191 189.69 7.45191 191.831 7.45191C191.942 7.45191 192.053 7.45749 192.164 7.44634C192.719 7.40175 193.091 7.0116 193.096 6.47096C193.102 5.93589 192.73 5.52344 192.17 5.49C191.615 5.46213 191.06 5.47885 190.505 5.47885C190.339 5.47885 190.172 5.48443 190.006 5.47885C189.823 5.47328 189.734 5.55131 189.739 5.74081C189.745 6.03621 189.739 6.33719 189.739 6.63259C189.739 6.78865 189.678 6.87783 189.518 6.87226C189.479 6.87226 189.445 6.87226 189.407 6.87226C188.33 6.85554 188.563 7.00045 188.535 6.05293C188.524 5.6795 188.524 5.31164 188.535 4.93821C188.552 4.52576 188.746 4.30839 189.146 4.30282C190.233 4.29167 191.332 4.24151 192.414 4.31954C193.99 4.43101 194.827 6.28703 193.951 7.63584C193.773 7.90895 193.74 8.05386 193.962 8.32697C194.561 9.06826 194.667 9.91545 194.256 10.7794C193.851 11.6377 193.146 12.1059 192.186 12.1226C191.21 12.1393 190.228 12.1338 189.251 12.1226C188.741 12.117 188.541 11.922 188.535 11.4203C188.524 10.7905 188.547 10.1551 188.524 9.5253C188.513 9.24104 188.63 9.19088 188.879 9.18531C189.734 9.16301 189.734 9.15744 189.734 10.0214C189.734 10.0938 189.734 10.1718 189.734 10.2443C189.745 11.0302 189.617 10.9299 190.455 10.941C191.049 10.9466 191.637 10.9633 192.231 10.9299C192.78 10.8964 193.185 10.4784 193.268 9.93775C193.346 9.44727 193.046 8.92892 192.575 8.71712C192.381 8.62795 192.181 8.63352 191.976 8.63352C190.871 8.65024 189.762 8.65024 188.652 8.65024Z" fill="#199046"/>
<path d="M171.523 7.15092C172.012 6.97257 172.394 6.79979 172.827 6.77749C174.331 6.71618 175.59 7.86435 175.64 9.38037C175.662 10.0659 175.651 10.7515 175.64 11.437C175.635 11.8996 175.418 12.1337 175.03 12.1282C174.647 12.1226 174.442 11.8885 174.436 11.4203C174.425 10.7515 174.453 10.0826 174.425 9.41939C174.397 8.60564 173.793 7.99811 173.027 7.97582C172.233 7.95353 171.584 8.50531 171.534 9.30234C171.496 9.94888 171.518 10.601 171.512 11.2475C171.512 11.3924 171.512 11.5485 171.479 11.6878C171.401 11.9888 171.168 12.1505 170.863 12.1282C170.558 12.1059 170.358 11.9219 170.319 11.6042C170.303 11.4761 170.314 11.3423 170.314 11.2141C170.314 9.21316 170.314 7.20666 170.314 5.20573C170.314 5.09426 170.308 4.98279 170.319 4.87131C170.353 4.52018 170.558 4.31395 170.874 4.29723C171.224 4.28051 171.462 4.48116 171.512 4.85459C171.534 5.03852 171.523 5.22245 171.523 5.41196C171.523 5.97489 171.523 6.52668 171.523 7.15092Z" fill="#199046"/>
<path d="M177.938 9.90431C178.259 10.863 179.236 11.2308 180.046 10.7403C180.174 10.6623 180.279 10.5564 180.396 10.4672C180.701 10.2276 181.012 10.2276 181.239 10.4561C181.489 10.7013 181.478 11.0469 181.189 11.3423C180.496 12.0446 179.647 12.2842 178.703 12.078C177.333 11.7826 176.478 10.5063 176.65 9.07941C176.806 7.76404 177.988 6.76078 179.352 6.78308C180.684 6.7998 181.827 7.85879 181.96 9.19646C182.016 9.7148 181.849 9.89873 181.311 9.89873C180.207 9.90988 179.097 9.90431 177.938 9.90431Z" fill="#1C9147"/>
<path d="M166.103 8.67255C166.103 7.74733 166.108 6.81654 166.103 5.89132C166.103 5.50116 166.092 5.50116 165.698 5.49002C165.365 5.48444 165.032 5.49559 164.699 5.48444C164.272 5.46772 164.033 5.25035 164.027 4.90479C164.022 4.55922 164.266 4.31398 164.682 4.30841C166.03 4.29726 167.379 4.29726 168.727 4.30841C169.149 4.31398 169.376 4.5425 169.365 4.91036C169.354 5.25592 169.154 5.46215 168.749 5.47887C168.361 5.49559 167.972 5.49002 167.584 5.48444C167.401 5.48444 167.312 5.5569 167.318 5.7464C167.323 6.0418 167.318 6.33721 167.318 6.63818C167.318 8.15978 167.318 9.68138 167.318 11.203C167.318 11.3535 167.329 11.504 167.301 11.6489C167.235 11.9721 166.979 12.1616 166.663 12.1449C166.341 12.1282 166.119 11.922 166.108 11.5708C166.086 11.0525 166.103 10.5341 166.103 10.0158C166.103 9.55876 166.103 9.11287 166.103 8.67255Z" fill="#199046"/>
<path d="M169.676 21.5197C169.659 21.2633 169.753 21.0404 169.931 20.862C170.092 20.706 170.075 20.5833 169.986 20.3827C169.742 19.8198 170.042 19.2958 170.613 19.2345C170.935 19.2011 171.196 19.3014 171.379 19.5745C171.551 19.8253 171.557 20.0984 171.424 20.366C171.374 20.4663 171.279 20.5443 171.24 20.6447C171.179 20.8007 171.318 20.8732 171.412 20.9568C171.507 21.0404 171.579 20.9679 171.64 20.901C171.701 20.8342 171.762 20.7617 171.823 20.6892C171.928 20.5555 172.045 20.4886 172.184 20.6502C172.295 20.7784 172.517 20.8732 172.311 21.0961C172.261 21.1519 172.222 21.2132 172.167 21.2633C171.984 21.4361 172.034 21.581 172.211 21.7204C172.256 21.7538 172.295 21.7984 172.339 21.8263C172.55 21.9656 172.528 22.1049 172.361 22.2722C172.222 22.4115 172.1 22.5564 171.917 22.339C171.706 22.0938 171.529 22.0102 171.257 22.3056C170.974 22.6121 170.58 22.5676 170.225 22.4171C169.881 22.2777 169.676 21.9099 169.676 21.5197Z" fill="#888C8D"/>
<path d="M173.754 20.9568C173.754 20.5834 173.765 20.2155 173.748 19.8477C173.732 19.5467 173.865 19.4575 174.142 19.4742C174.436 19.4909 174.736 19.4631 175.025 19.4854C175.768 19.5355 176.101 20.0929 175.774 20.7617C175.679 20.9512 175.751 21.0014 175.851 21.1184C176.284 21.6256 176.112 22.2387 175.48 22.4115C174.975 22.5509 174.453 22.4673 173.937 22.4617C173.76 22.4617 173.754 22.3056 173.754 22.1774C173.754 21.7706 173.754 21.3637 173.754 20.9568Z" fill="#888C8D"/>
<path d="M175.662 16.5815C175.662 16.1523 175.668 15.7287 175.662 15.2996C175.657 15.0933 175.735 14.993 175.951 14.9874C176.167 14.9819 176.312 15.0376 176.3 15.294C176.295 15.3887 176.3 15.4779 176.3 15.5727C176.306 16.3028 176.328 16.3195 177.044 16.2638C177.249 16.2471 177.349 16.1802 177.344 15.9684C177.338 15.7287 177.344 15.4835 177.349 15.2438C177.349 15.0041 177.51 14.993 177.693 14.993C177.86 14.993 177.987 15.0376 177.987 15.2382C177.987 16.13 177.987 17.0218 177.987 17.908C177.987 18.1198 177.832 18.1309 177.677 18.1254C177.527 18.1254 177.366 18.1309 177.355 17.9192C177.344 17.6962 177.355 17.4733 177.349 17.2503C177.338 16.81 177.338 16.81 176.927 16.7989C176.312 16.7821 176.312 16.7821 176.312 17.3897C176.312 17.5011 176.312 17.6126 176.312 17.7241C176.317 17.947 176.289 18.1198 175.995 18.1309C175.701 18.1421 175.668 17.9805 175.673 17.7464C175.668 17.3618 175.662 16.9716 175.662 16.5815Z" fill="#8A8E8E"/>
<path d="M188.574 16.0298C188.68 16.0075 188.746 15.9907 188.818 15.974C189.562 15.818 190.039 16.1914 190.067 16.9605C190.078 17.2559 190.061 17.5569 190.067 17.8523C190.072 18.0808 189.945 18.131 189.751 18.1254C189.562 18.1254 189.423 18.092 189.429 17.8579C189.434 17.5792 189.434 17.3005 189.423 17.0219C189.407 16.6763 189.251 16.4979 188.985 16.4868C188.691 16.4756 188.53 16.6596 188.513 17.0386C188.502 17.3005 188.502 17.5569 188.513 17.8189C188.524 18.0697 188.397 18.131 188.169 18.1254C187.958 18.1199 187.87 18.0474 187.87 17.83C187.875 16.9773 187.875 16.1245 187.87 15.2717C187.87 15.0488 187.986 14.9875 188.186 14.9875C188.375 14.9875 188.508 15.0265 188.513 15.2606C188.524 15.5003 188.48 15.7455 188.574 16.0298Z" fill="#888D8D"/>
<path d="M183.652 17.0664C183.652 17.2726 183.658 17.4733 183.652 17.6795C183.647 18.1365 183.597 18.2034 183.192 18.1142C182.975 18.0641 182.798 18.1198 182.604 18.1477C182.121 18.209 181.716 18.0641 181.466 17.6349C181.233 17.2336 181.244 16.81 181.522 16.431C181.805 16.0353 182.204 15.8848 182.687 16.0018C182.831 16.0353 182.97 16.052 183.12 16.0409C183.647 16.0018 183.647 16.013 183.652 16.5202C183.658 16.693 183.652 16.8825 183.652 17.0664Z" fill="#888D8D"/>
<path d="M181.794 21.4027C181.794 21.6647 181.788 21.9211 181.794 22.183C181.805 22.4394 181.661 22.5286 181.45 22.4784C181.189 22.4171 180.945 22.4728 180.695 22.5007C179.991 22.5676 179.453 22.0715 179.458 21.3971C179.464 20.7785 179.98 20.3103 180.645 20.3549C180.934 20.3716 181.222 20.4106 181.517 20.3716C181.694 20.3493 181.794 20.4329 181.794 20.6224C181.788 20.8844 181.788 21.1407 181.794 21.4027C181.788 21.4027 181.788 21.4027 181.794 21.4027Z" fill="#888C8D"/>
<path d="M184.74 21.4361C184.74 21.6758 184.729 21.9154 184.74 22.1551C184.751 22.3836 184.668 22.5174 184.429 22.484C184.141 22.4449 183.858 22.484 183.569 22.5118C183.014 22.5676 182.637 22.2722 182.571 21.7204C182.526 21.3581 182.554 20.9847 182.554 20.6112C182.548 20.4161 182.665 20.3604 182.837 20.3604C183.003 20.366 183.187 20.3437 183.187 20.5945C183.192 20.8732 183.181 21.1519 183.192 21.425C183.209 21.8095 183.359 21.9656 183.675 21.9489C183.969 21.9377 184.085 21.7984 184.102 21.4305C184.113 21.1909 184.108 20.9512 184.102 20.7115C184.096 20.4997 184.13 20.3604 184.396 20.3548C184.657 20.3493 184.773 20.4496 184.746 20.7115C184.746 20.7283 184.746 20.7506 184.746 20.7673C184.74 20.9902 184.74 21.2132 184.74 21.4361Z" fill="#888D8D"/>
<path d="M187.698 23.4259C188.286 22.7069 187.981 22.0325 187.731 21.3581C187.62 21.0516 187.52 20.7394 187.415 20.4217C188.036 20.327 188.03 20.3326 188.208 20.8398C188.286 21.0627 188.313 21.3135 188.474 21.542C188.696 21.3247 188.741 21.0293 188.857 20.7729C189.062 20.3214 189.057 20.3158 189.656 20.4273C189.34 21.1853 189.024 21.9322 188.707 22.6791C188.657 22.7961 188.596 22.9131 188.552 23.0358C188.419 23.3981 188.463 23.5597 187.698 23.4259Z" fill="#888D8D"/>
<path d="M179.208 17.2615C179.397 17.6516 179.647 17.6461 179.902 17.607C179.991 17.5959 180.085 17.5123 180.163 17.529C180.296 17.5625 180.484 17.5736 180.518 17.7464C180.545 17.8969 180.39 17.9582 180.279 18.0139C179.852 18.2146 179.419 18.2257 179.02 17.9526C178.67 17.7129 178.504 17.2336 178.598 16.8212C178.709 16.3363 179.014 16.052 179.497 15.9573C180.079 15.8402 180.712 16.3251 180.756 16.9159C180.773 17.1333 180.723 17.2726 180.462 17.2671C180.074 17.2559 179.685 17.2615 179.208 17.2615Z" fill="#888C8D"/>
<path d="M177.366 21.7093C177.543 21.9935 177.76 22.0938 178.032 21.9656C178.298 21.8375 178.487 21.9322 178.686 22.0827C178.354 22.4951 177.843 22.6289 177.366 22.4394C176.961 22.2833 176.678 21.8263 176.695 21.3804C176.717 20.8788 177.022 20.4998 177.494 20.3604C177.971 20.2211 178.437 20.3883 178.703 20.8008C178.786 20.9234 178.847 21.0571 178.864 21.2076C178.903 21.5253 178.847 21.6034 178.526 21.6145C178.342 21.6201 178.154 21.6089 177.971 21.6201C177.793 21.6312 177.605 21.5755 177.366 21.7093Z" fill="#888C8D"/>
<path d="M171.929 18.2146C171.601 18.1811 171.313 18.0752 171.152 17.7631C171.091 17.6516 171.041 17.5067 171.163 17.4064C171.268 17.3172 171.418 17.3339 171.529 17.3952C171.64 17.4566 171.718 17.5736 171.823 17.6405C171.923 17.7018 172.051 17.7018 172.117 17.5903C172.2 17.451 172.067 17.4008 171.973 17.3562C171.823 17.2838 171.662 17.2336 171.518 17.1612C171.229 17.0107 171.091 16.7599 171.135 16.4867C171.179 16.1969 171.424 15.9684 171.745 15.9294C172.051 15.8904 172.339 15.9461 172.55 16.1969C172.661 16.3307 172.755 16.4979 172.617 16.6372C172.511 16.7487 172.339 16.7208 172.212 16.6205C172.128 16.5536 172.062 16.4589 171.934 16.4533C171.856 16.4533 171.773 16.4645 171.74 16.5313C171.701 16.6038 171.745 16.6762 171.818 16.7097C171.951 16.7766 172.084 16.8379 172.217 16.8992C172.633 17.0943 172.794 17.3339 172.722 17.6516C172.65 17.9805 172.317 18.2201 171.929 18.2146Z" fill="#898D8E"/>
<path d="M173.848 18.1589C173.516 18.1533 173.16 17.9025 173.133 17.451C173.088 16.7543 173.116 16.0465 173.11 15.3497C173.11 15.138 173.255 15.1212 173.41 15.1212C173.56 15.1212 173.715 15.1157 173.732 15.3275C173.737 15.4166 173.743 15.5114 173.737 15.6061C173.721 15.8625 173.765 16.052 174.087 16.0186C174.242 16.0074 174.326 16.0799 174.32 16.2471C174.32 16.4032 174.259 16.4645 174.104 16.5035C173.715 16.5982 173.721 16.6205 173.737 17.1222C173.749 17.3953 173.804 17.6071 174.131 17.5903C174.326 17.5792 174.442 17.6294 174.437 17.8635C174.431 18.1254 174.276 18.1589 174.07 18.1589C174.048 18.1589 174.009 18.1589 173.848 18.1589Z" fill="#888D8D"/>
<path d="M185.517 20.7784C185.517 20.444 185.522 20.1096 185.517 19.7752C185.511 19.569 185.589 19.4686 185.805 19.4686C186.016 19.4686 186.116 19.5411 186.105 19.7585C186.099 19.8699 186.11 19.9814 186.105 20.0929C186.099 20.2824 186.182 20.366 186.371 20.3604C186.56 20.3604 186.754 20.3381 186.743 20.6335C186.732 20.8676 186.582 20.9066 186.404 20.8955C186.144 20.8843 186.11 21.0348 186.105 21.2466C186.088 21.7984 186.099 21.8374 186.621 21.9377C186.782 21.9712 186.837 22.0381 186.837 22.1886C186.837 22.3558 186.798 22.4617 186.604 22.5007C185.966 22.6289 185.544 22.3167 185.517 21.6646C185.506 21.3748 185.517 21.0794 185.517 20.7784Z" fill="#888C8D"/>
<path d="M185.861 16.353C185.861 16.0743 185.866 15.7956 185.861 15.5169C185.855 15.2996 185.855 15.11 186.166 15.1212C186.438 15.1268 186.46 15.2828 186.454 15.4835C186.454 15.5225 186.454 15.5559 186.454 15.595C186.443 15.8458 186.493 16.0408 186.809 16.0185C186.987 16.0018 187.087 16.0743 187.076 16.2749C187.07 16.4421 186.976 16.4756 186.832 16.509C186.438 16.5926 186.443 16.6038 186.449 17.0162C186.46 17.451 186.515 17.529 186.87 17.5959C187.148 17.646 187.237 17.7519 187.181 17.9637C187.153 18.0641 187.092 18.1142 186.998 18.1421C186.421 18.3149 185.905 17.9637 185.861 17.3506C185.838 17.0162 185.855 16.6818 185.855 16.3474C185.861 16.353 185.861 16.353 185.861 16.353Z" fill="#888D8D"/>
<path d="M169.892 15.9071C169.681 15.8235 169.543 15.9796 169.36 15.9517C169.315 15.7566 169.238 15.5337 169.46 15.4055C169.743 15.2383 170.031 15.0543 170.392 15.1324C170.53 15.1658 170.536 15.2829 170.536 15.3943C170.536 16.2081 170.536 17.0218 170.542 17.8412C170.542 18.0585 170.442 18.131 170.236 18.131C170.02 18.131 169.881 18.0864 169.887 17.83C169.898 17.3841 169.887 16.9438 169.887 16.4979C169.892 16.2973 169.892 16.0966 169.892 15.9071Z" fill="#898D8E"/>
<path d="M185.073 16.5759C185.073 16.9828 185.067 17.3953 185.078 17.8021C185.084 18.0362 184.995 18.131 184.757 18.1366C184.518 18.1366 184.429 18.0418 184.435 17.8077C184.44 16.9717 184.44 16.1356 184.435 15.2996C184.435 15.0432 184.568 14.993 184.784 14.993C184.995 14.993 185.084 15.0878 185.078 15.2996C185.067 15.7232 185.073 16.1468 185.073 16.5759Z" fill="#8A8D8E"/>
<path d="M119.067 8.4329C118.424 8.40504 117.774 8.42176 117.125 8.42176C116.554 8.42176 116.565 8.48307 116.565 7.83653C116.565 7.05622 116.581 6.27591 116.559 5.49561C116.543 4.8212 116.054 4.33629 115.411 4.30843C114.739 4.28056 114.19 4.73759 114.107 5.412C114.085 5.57921 114.101 5.74642 114.101 5.91363C114.101 8.53323 114.101 11.1528 114.101 13.7724C114.101 14.2685 114.112 14.235 113.657 14.235C112.731 14.235 111.81 14.235 110.883 14.235C110.3 14.235 109.718 14.235 109.13 14.235C109.146 14.1737 109.141 14.1514 109.152 14.1459C109.346 14.0344 109.54 13.9341 109.729 13.817C111.344 12.8528 112.259 11.4371 112.292 9.54205C112.331 7.42408 111.305 5.89691 109.479 4.91038C108.109 4.16909 106.633 4.03532 105.118 4.27498C103.964 4.45891 102.921 4.92152 102.05 5.71298C99.6139 7.93685 99.8913 11.7548 102.621 13.5996C102.921 13.8003 103.237 13.9731 103.548 14.157C103.01 14.235 102.482 14.2183 101.955 14.2406C101.495 14.2573 101.19 14.5806 101.167 15.0153C101.145 15.4445 101.423 15.8068 101.861 15.8848C102.022 15.9127 102.194 15.9016 102.36 15.9016C106.078 15.9016 109.79 15.9016 113.507 15.9016C113.635 15.9016 113.768 15.9071 113.896 15.9016C114.035 15.896 114.096 15.9573 114.096 16.0966C114.09 16.4143 114.09 16.7264 114.096 17.0441C114.101 17.334 113.946 17.4454 113.685 17.4454C113.557 17.4454 113.424 17.4454 113.297 17.4454C109.618 17.4454 105.939 17.4454 102.261 17.4454C102.111 17.4454 101.966 17.4399 101.817 17.4454C101.362 17.4622 101.256 17.5569 101.245 18.0028C101.234 18.4877 101.223 18.967 101.245 19.4519C101.29 20.3995 101.622 21.2188 102.316 21.882C103.037 22.5732 103.903 22.8574 104.891 22.8574C108.53 22.8463 112.176 22.8519 115.816 22.8519C115.943 22.8519 116.076 22.8574 116.204 22.8407C116.615 22.785 116.92 22.4506 116.937 22.0548C116.953 21.6814 116.703 21.347 116.321 21.2244C116.121 21.1575 115.916 21.1798 115.716 21.1798C112.442 21.1798 109.169 21.1798 105.9 21.1798C105.695 21.1798 105.495 21.1853 105.29 21.1742C104.43 21.124 103.781 20.4552 103.748 19.5857C103.731 19.1287 103.731 19.1231 104.186 19.1231C106.644 19.1231 109.102 19.1231 111.56 19.1231C112.614 19.1231 113.668 19.1231 114.723 19.1231C115.133 19.1231 115.533 19.0729 115.893 18.8388C116.415 18.5044 116.581 18.0028 116.576 17.4064C116.565 15.1212 116.57 12.8361 116.576 10.5509C116.576 10.0994 116.581 10.0938 117.031 10.0938C117.68 10.0883 118.324 10.105 118.973 10.0883C119.467 10.0771 119.788 9.82073 119.861 9.41386C119.949 8.88994 119.622 8.4552 119.067 8.4329ZM106.139 13.2429C104.53 13.1761 103.215 12.0335 102.893 10.3948C102.627 9.05158 102.827 7.79194 103.748 6.7441C104.68 5.67954 105.906 5.41758 107.232 5.71855C108.58 6.0251 109.374 6.9559 109.751 8.2657C109.862 8.6447 109.906 9.02928 109.884 9.38042C109.906 9.85418 109.845 10.2778 109.723 10.6902C109.246 12.3344 107.87 13.3154 106.139 13.2429Z" fill="#222222"/>
<path d="M74.9175 7.87552C74.9175 7.11193 74.912 6.35392 74.9175 5.59034C74.9231 5.27821 74.8343 5.00511 74.6457 4.76544C74.3294 4.36414 73.7745 4.19693 73.2973 4.35299C72.8202 4.50348 72.4706 4.9438 72.454 5.47886C72.4318 6.29819 72.4484 7.11193 72.4429 7.93126C72.4429 8.41616 72.4373 8.41616 71.9601 8.42173C71.8325 8.42173 71.6994 8.42173 71.5717 8.42173C71.0169 8.42731 70.462 8.41059 69.9072 8.43845C69.4633 8.46075 69.1859 8.77287 69.1581 9.18532C69.1304 9.62564 69.3912 9.97677 69.8295 10.066C69.9738 10.0938 70.1236 10.0882 70.2734 10.0882C70.8837 10.0882 71.4941 10.0994 72.1044 10.0827C72.3707 10.0771 72.4595 10.1718 72.4484 10.4394C72.4318 11.0358 72.4429 11.6266 72.4429 12.2229C72.4429 12.6577 72.4429 13.098 72.4429 13.5272C72.2376 13.5495 72.1432 13.4436 72.0378 13.3823C71.1612 12.8751 70.2068 12.5797 69.2081 12.4849C68.8862 12.4515 68.7142 12.3233 68.5478 12.0836C67.8487 11.0803 67.1384 10.0827 66.4393 9.07942C66.3672 8.97352 66.2618 8.88434 66.2562 8.73943C66.3616 8.58337 66.5336 8.50534 66.6835 8.39944C67.5712 7.76405 68.4645 7.13423 69.3523 6.49884C69.8905 6.11426 70.0292 5.83 69.9072 5.40641C69.7851 4.98838 69.4855 4.82118 68.8363 4.82118C65.5072 4.82118 62.178 4.82118 58.8544 4.82118C58.7046 4.82118 58.5548 4.8156 58.4105 4.84347C58.011 4.9215 57.717 5.29493 57.7392 5.68509C57.7558 6.08081 58.0721 6.41523 58.4771 6.46539C58.6436 6.48211 58.81 6.47654 58.9765 6.47654C61.2903 6.47654 63.5985 6.47654 65.9122 6.48211C66.0454 6.48211 66.2007 6.42638 66.3339 6.54342C66.2451 6.73293 66.0676 6.79981 65.9233 6.90571C63.2544 8.80631 60.5856 10.7013 57.9167 12.6019C57.7392 12.7301 57.545 12.8583 57.4007 13.02C57.1122 13.3377 57.1122 13.778 57.3619 14.0901C57.606 14.3967 58.0499 14.4747 58.4161 14.2796C58.5437 14.2071 58.6658 14.118 58.7823 14.0288C60.5634 12.7636 62.3445 11.4984 64.12 10.2332C64.2865 10.1161 64.4529 10.0046 64.6582 9.8653C65.2908 10.7682 65.9122 11.6544 66.5281 12.5239C66.4116 12.6967 66.2729 12.6744 66.1508 12.7134C65.2908 12.9587 64.4862 13.3265 63.7816 13.8895C62.4222 14.9596 61.6509 16.3586 61.6343 18.0975C61.6121 20.4217 62.7329 22.1105 64.7581 23.1528C66.861 24.2341 69.0527 24.2675 71.2499 23.4092C73.1697 22.6623 74.9786 20.8007 74.9342 17.9192C74.8787 14.5639 74.9175 11.2197 74.9175 7.87552ZM68.2537 22.5174C65.8401 22.5118 64.059 20.6503 64.0423 18.1644C64.0257 15.8569 65.8678 13.8281 68.3258 13.8783C70.7117 13.9229 72.515 15.7622 72.5095 18.209C72.5039 20.667 70.6729 22.523 68.2537 22.5174Z" fill="#212222"/>
<path d="M53.5998 21.5421C53.5998 18.9447 53.5998 16.3419 53.5998 13.7446C53.5998 11.1082 53.5998 8.47192 53.5998 5.8356C53.5998 5.63495 53.6054 5.42872 53.5499 5.22807C53.3834 4.6317 52.884 4.26941 52.2681 4.30285C51.6689 4.33629 51.2028 4.78776 51.1307 5.39528C51.114 5.56249 51.1196 5.7297 51.1196 5.89691C51.1196 8.75617 51.1196 11.6154 51.1196 14.4747C51.1196 15.2271 51.1695 15.1157 50.4593 15.1157C46.6142 15.1212 42.7746 15.1157 38.9294 15.1157C38.3413 15.1157 38.2802 15.1714 38.2747 15.7399C38.2691 16.9661 38.2691 18.1923 38.2747 19.4185C38.2802 20.5054 38.7241 21.3971 39.5564 22.0827C40.2444 22.6512 41.0434 22.8574 41.9256 22.8574C45.4157 22.8463 48.9113 22.8519 52.4013 22.8519C52.5123 22.8519 52.6233 22.8574 52.7342 22.8463C53.2281 22.7961 53.5388 22.4896 53.5887 21.9879C53.6054 21.8375 53.5998 21.6925 53.5998 21.5421ZM51.114 20.5945C51.114 21.1296 51.0697 21.1742 50.5536 21.1742C47.857 21.1742 45.1604 21.1575 42.4638 21.1853C41.3985 21.1965 40.6827 20.2601 40.7382 19.4185C40.7826 18.7162 40.7438 18.0084 40.7493 17.3061C40.7549 16.8379 40.7882 16.8045 41.2598 16.8045C42.8467 16.7989 44.4391 16.8045 46.026 16.8045C47.5796 16.8045 49.1277 16.8045 50.6813 16.8045C51.1307 16.8045 51.1196 16.771 51.1196 17.2114C51.1196 18.3316 51.1196 19.4631 51.114 20.5945Z" fill="#222222"/>
<path d="M95.8801 5.50674C95.8801 4.88807 95.8024 4.81561 95.1698 4.81561C92.2679 4.81561 89.366 4.81561 86.4697 4.81561C84.7163 4.81561 82.9574 4.81561 81.2041 4.81561C80.6215 4.81561 80.5494 4.8825 80.5494 5.44543C80.5438 6.63261 80.566 7.81979 80.5438 9.01255C80.5161 10.9689 82.0863 12.5964 84.1504 12.5685C85.8871 12.5462 87.6238 12.5629 89.3605 12.5629C91.1527 12.5629 92.9449 12.5406 94.7371 12.5741C95.4695 12.5908 95.9078 12.1115 95.8967 11.4148C95.8634 9.44729 95.8856 7.4798 95.8801 5.50674ZM93.3832 10.3446C93.3832 10.8295 93.3222 10.8909 92.8394 10.8964C90.1428 10.902 87.4462 10.9076 84.7441 10.8909C83.701 10.8853 83.0296 10.1719 83.0129 9.12402C83.0074 8.43846 83.0074 7.75291 83.0129 7.06178C83.0185 6.52114 83.0684 6.47098 83.6288 6.47098C85.1602 6.4654 86.6972 6.47098 88.2286 6.47098C89.7988 6.47098 91.3691 6.47098 92.9393 6.47098C93.3666 6.47098 93.3777 6.47655 93.3777 6.89457C93.3887 8.04274 93.3943 9.19648 93.3832 10.3446Z" fill="#212222"/>
<path d="M151.448 8.22663C150.799 5.98047 149.002 4.43657 146.854 4.20248C144.302 3.92937 142.282 5.21688 141.317 7.17322C140.307 9.20759 140.29 11.3033 141.306 13.3321C143.203 17.1333 148.452 17.4343 150.738 13.9006C151.443 12.8137 151.743 11.6042 151.731 10.2108C151.737 9.60332 151.648 8.90662 151.448 8.22663ZM148.791 13.0645C148.441 13.8337 147.92 14.4412 147.115 14.7533C145.961 15.1992 144.696 14.7979 143.93 13.7389C143.392 12.9977 143.159 12.1449 143.048 11.2531C143.009 10.9243 143.009 10.5898 142.998 10.4003C143.004 9.43054 143.098 8.62793 143.381 7.84763C143.525 7.44633 143.719 7.06732 143.98 6.72733C145.14 5.20573 147.248 5.22245 148.386 6.76635C148.99 7.58567 149.224 8.53318 149.312 9.51971C149.412 10.7459 149.301 11.9387 148.791 13.0645Z" fill="#222222"/>
<path d="M180.657 8.9847C180.518 8.99585 180.435 9.00142 180.346 9.00142C179.558 9.00142 178.77 9.00142 177.977 9.00142C178.099 8.42177 178.548 8.03719 179.125 7.98145C179.83 7.92014 180.335 8.23226 180.657 8.9847Z" fill="#F8FBF9"/>
<path d="M171.052 21.6591C170.991 21.7873 170.863 21.882 170.697 21.9099C170.475 21.9433 170.353 21.8096 170.325 21.5978C170.303 21.4194 170.347 21.2578 170.525 21.1797C170.63 21.1296 171.024 21.4696 171.052 21.6591Z" fill="#F1F0F0"/>
<path d="M174.797 21.2578C175.191 21.2578 175.391 21.3692 175.396 21.5866C175.402 21.8095 175.202 21.9266 174.808 21.9266C174.597 21.9266 174.348 21.9879 174.353 21.6256C174.359 21.3023 174.392 21.2578 174.797 21.2578Z" fill="#F1F0F0"/>
<path d="M174.786 20.026C175.113 20.0371 175.313 20.1765 175.296 20.3883C175.28 20.6057 175.052 20.7116 174.691 20.7171C174.414 20.7227 174.347 20.5889 174.359 20.3493C174.37 20.0594 174.42 20.0148 174.786 20.026Z" fill="#F1F0F0"/>
<path d="M182.998 17.0442C183.003 17.4064 182.815 17.6071 182.476 17.6071C182.165 17.6071 181.971 17.412 181.955 17.0887C181.938 16.7488 182.149 16.4924 182.454 16.4868C182.765 16.4812 182.992 16.7153 182.998 17.0442Z" fill="#FBFBFB"/>
<path d="M180.09 21.4194C180.096 21.1129 180.357 20.8342 180.64 20.8454C180.923 20.8565 181.183 21.1408 181.183 21.4362C181.183 21.7371 180.906 22.0158 180.629 22.0047C180.329 21.9935 180.09 21.7316 180.09 21.4194Z" fill="#F6F6F5"/>
<path d="M179.23 16.8546C179.48 16.431 179.78 16.3419 180.018 16.5871C180.068 16.6428 180.107 16.7041 180.09 16.7822C180.068 16.8658 180.002 16.8936 179.924 16.8936C179.702 16.8992 179.486 16.9327 179.23 16.8546Z" fill="#E8E8E8"/>
<path d="M177.372 21.2076C177.571 20.823 177.821 20.7172 178.082 20.8955C178.159 20.9457 178.221 21.0237 178.215 21.1185C178.204 21.2299 178.104 21.2522 178.01 21.2522C177.799 21.2466 177.582 21.2912 177.372 21.2076Z" fill="#E9E8E8"/>
</g>
<defs>
<clipPath id="clip0_276_2843">
<rect width="194" height="24" fill="white" transform="translate(0.5)"/>
</clipPath>
</defs>
</svg>
