<svg width="155" height="26" viewBox="0 0 155 26" fill="none" xmlns="http://www.w3.org/2000/svg">
<g clip-path="url(#clip0_276_2803)">
<path d="M122.826 18.591C123.126 18.959 123.426 19.3417 123.741 19.7048C124.603 20.7009 125.469 21.6969 126.335 22.688C127.093 23.5614 127.851 24.4299 128.613 25.3032C128.702 25.4014 128.791 25.5044 128.791 25.6418C128.796 25.8233 128.741 25.9656 128.525 25.9804C128.412 25.9853 128.294 25.9853 128.18 25.9853C126.984 25.9853 125.784 25.9804 124.588 25.9902C124.288 25.9902 124.096 25.9166 123.884 25.6663C122.216 23.7037 120.523 21.7705 118.84 19.8226C117.491 18.2574 116.148 16.6873 114.799 15.1221C114.686 14.9896 114.578 14.8669 114.637 14.6903C114.701 14.4989 114.893 14.5038 115.05 14.4989C115.395 14.4891 115.739 14.494 116.084 14.494C117.919 14.494 119.76 14.4891 121.596 14.4989C122.344 14.5038 122.974 14.2585 123.461 13.6844C124.322 12.6737 124.283 10.8926 123.269 9.93091C122.841 9.52366 122.319 9.36665 121.743 9.36665C119.563 9.36174 117.378 9.36174 115.198 9.36174C114.755 9.36174 114.312 9.35684 113.869 9.36665C113.52 9.37156 113.475 9.41572 113.456 9.75918C113.446 9.92109 113.456 10.0879 113.456 10.2498C113.456 15.2546 113.451 20.2593 113.451 25.2591C113.451 25.3572 113.456 25.4553 113.451 25.5535C113.421 25.9018 113.347 25.9803 112.998 25.9853C112.112 25.9902 111.226 25.9951 110.34 25.9853C109.971 25.9803 109.917 25.9215 109.902 25.5535C109.892 25.2444 109.902 24.9303 109.902 24.6212C109.902 18.4586 109.902 12.291 109.902 6.1283C109.902 5.27456 109.932 5.24512 110.778 5.24512C114.322 5.24512 117.865 5.25002 121.409 5.24512C122.353 5.24512 123.269 5.39231 124.125 5.79956C125.041 6.23625 125.774 6.90354 126.345 7.73766C127.235 9.02809 127.649 10.4706 127.624 12.026C127.6 13.7188 127.103 15.2742 126.01 16.5891C125.232 17.5263 124.253 18.174 123.052 18.4536C122.964 18.4684 122.88 18.4782 122.826 18.591Z" fill="#B01E48"/>
<path d="M55.3193 5.3825C57.3223 5.3825 59.3204 5.3825 61.3234 5.3825C61.914 5.3825 61.9484 5.41194 61.9484 5.97619C61.9533 6.95751 61.9533 7.93883 61.9484 8.92015C61.9484 9.44515 61.8795 9.51384 61.3529 9.51384C57.6619 9.51384 53.9708 9.51384 50.2798 9.51384C50.0682 9.51384 49.8516 9.51384 49.64 9.51384C48.9806 9.52366 48.4195 9.89656 48.2965 10.4412C48.1587 11.0643 48.4737 11.6776 49.0445 12.0015C49.9402 12.5118 50.895 12.8896 51.8596 13.2428C52.6864 13.5471 53.5328 13.7875 54.3793 14.0279C55.841 14.445 57.3125 14.8326 58.72 15.4017C59.532 15.7305 60.344 16.0838 61.0675 16.599C62.2683 17.4576 62.8835 18.6303 62.9032 20.0924C62.9278 21.5742 62.5045 22.9235 61.5744 24.0913C60.9887 24.8224 60.2112 25.2934 59.3253 25.5878C58.4788 25.8675 57.6127 25.9803 56.717 25.9803C52.9915 25.9705 49.2709 25.9754 45.5454 25.9754C45.4618 25.9754 45.383 25.9803 45.2994 25.9754C44.9746 25.9558 44.8712 25.8577 44.8368 25.5338C44.8269 25.4504 44.8318 25.3719 44.8318 25.2885C44.8318 24.371 44.8318 23.4584 44.8318 22.5408C44.8318 21.8686 44.8614 21.8441 45.5159 21.8392C48.5672 21.8392 51.6184 21.8392 54.6697 21.8392C55.5408 21.8392 56.4069 21.8294 57.278 21.8392C57.6816 21.8441 58.0408 21.7312 58.4001 21.5497C59.1678 21.1572 59.222 20.0777 58.6609 19.4889C58.341 19.1553 57.9178 19.0081 57.5142 18.8511C56.2642 18.3702 54.9699 18.0022 53.6756 17.6588C52.081 17.2368 50.4767 16.859 48.9215 16.3046C47.9668 15.966 47.0366 15.5489 46.2492 14.9013C45.4175 14.2193 44.9007 13.3508 44.694 12.2763C44.4873 11.1919 44.4726 10.1223 44.8121 9.08206C45.4519 7.12924 46.7118 5.79956 48.8132 5.42175C49.1823 5.35796 49.5662 5.37268 49.9402 5.37268C51.7415 5.37759 53.5328 5.3825 55.3193 5.3825Z" fill="#AF1E48"/>
<path d="M131.074 15.5784C131.074 12.3744 131.074 9.16552 131.074 5.96152C131.074 5.86339 131.074 5.76525 131.074 5.66712C131.074 5.49049 131.178 5.39726 131.345 5.37763C131.473 5.36291 131.606 5.36292 131.739 5.36292C136.773 5.36292 141.808 5.36292 146.847 5.36292C147.581 5.36292 147.585 5.36782 147.585 6.08909C147.585 6.82508 147.585 7.56107 147.585 8.29705C147.581 8.91038 147.556 8.93491 146.951 8.93491C143.112 8.93491 139.273 8.93491 135.435 8.93982C134.682 8.93982 134.677 8.82696 134.677 9.6709C134.682 10.8485 134.677 12.0261 134.677 13.2036C134.677 13.3165 134.682 13.4342 134.677 13.5471C134.667 13.8071 134.8 13.8955 135.041 13.8807C135.125 13.8758 135.203 13.8807 135.287 13.8807C138.289 13.8807 141.291 13.8807 144.293 13.8807C144.392 13.8807 144.49 13.8758 144.588 13.8857C144.967 13.9102 145.036 13.974 145.036 14.3665C145.041 15.235 145.041 16.0985 145.036 16.967C145.031 17.4086 144.977 17.4675 144.51 17.4675C143.427 17.4724 142.344 17.4675 141.262 17.4675C139.278 17.4675 137.29 17.4675 135.307 17.4675C135.193 17.4675 135.075 17.4724 134.962 17.4675C134.751 17.4626 134.667 17.5754 134.672 17.7717C134.672 17.8355 134.672 17.9041 134.672 17.9679C134.672 19.2436 134.672 20.5194 134.677 21.7951C134.677 22.2906 134.682 22.2955 135.203 22.2955C139.057 22.2955 142.91 22.2955 146.769 22.3004C147.576 22.3004 147.576 22.3054 147.576 23.1198C147.576 23.8706 147.581 24.6262 147.576 25.3769C147.571 25.8823 147.517 25.9411 147.01 25.9411C141.891 25.9411 136.773 25.9411 131.655 25.9362C131.119 25.9362 131.069 25.8823 131.069 25.3376C131.074 22.0895 131.074 18.8315 131.074 15.5784Z" fill="#AF1E48"/>
<path d="M84.5278 15.6962C84.5278 18.8854 84.5278 22.0747 84.5278 25.264C84.5278 25.9853 84.5229 25.9902 83.7798 25.9902C83.0071 25.9902 82.2394 25.9951 81.4667 25.9902C81.0878 25.9902 81.0041 25.9166 80.9942 25.5388C80.9795 25.0825 80.9893 24.6212 80.9893 24.1649C80.9893 22.2023 80.9893 20.2397 80.9893 18.277C80.9893 18.1445 80.9844 18.017 80.9893 17.8845C80.9992 17.6882 80.9007 17.6244 80.7187 17.6343C80.6202 17.6392 80.5218 17.6343 80.4234 17.6343C76.9144 17.6343 73.4006 17.6343 69.8916 17.6343C69.8424 17.6343 69.7932 17.6343 69.744 17.6343C69.3896 17.649 69.3798 17.6539 69.3699 17.9875C69.365 18.1347 69.3699 18.2819 69.3699 18.4291C69.3699 20.6371 69.3699 22.8451 69.3699 25.053C69.3699 25.2346 69.3798 25.4161 69.3601 25.5927C69.3355 25.8773 69.2371 25.9804 68.9615 25.9853C68.0412 25.9951 67.1258 25.9951 66.2055 25.9853C65.925 25.9804 65.8315 25.8822 65.8069 25.5976C65.7921 25.4014 65.8069 25.2051 65.8069 25.0089C65.8069 18.6794 65.8069 12.3499 65.8069 6.02037C65.8069 5.95658 65.8019 5.88789 65.8069 5.8241C65.8216 5.48064 65.8954 5.40214 66.2547 5.39723C66.9437 5.38742 67.6327 5.39232 68.3217 5.39232C68.5038 5.39232 68.6809 5.38742 68.863 5.39232C69.2764 5.40214 69.3552 5.47574 69.3699 5.87317C69.3749 6.03509 69.3749 6.20191 69.3749 6.36383C69.3749 8.50801 69.3749 10.6473 69.3749 12.7915C69.3749 12.9387 69.3798 13.0859 69.3749 13.233C69.3699 13.4342 69.4438 13.5422 69.6603 13.5274C69.7587 13.5225 69.8572 13.5274 69.9556 13.5274C73.4498 13.5274 76.944 13.5324 80.4381 13.5274C80.9647 13.5274 80.9942 13.6403 80.9942 12.9632C80.9942 10.6718 80.9942 8.38534 80.9942 6.09396C80.9942 5.99583 80.9893 5.8977 80.9942 5.79957C81.0139 5.47083 81.0779 5.39723 81.4076 5.39232C81.8161 5.38251 82.2295 5.38742 82.638 5.39232C83.0809 5.39232 83.5238 5.39232 83.9668 5.39232C84.513 5.39723 84.5327 5.41686 84.5376 5.98111C84.5376 6.11359 84.5376 6.24116 84.5376 6.37364C84.5278 9.47951 84.5278 12.5903 84.5278 15.6962Z" fill="#AF1E48"/>
<path d="M97.2445 5.36288C98.032 5.36288 98.8194 5.35797 99.6068 5.36288C100.325 5.36778 100.626 5.56405 100.867 6.22644C101.152 7.00658 101.398 7.80145 101.689 8.5816C101.994 9.4059 102.259 10.24 102.565 11.0643C102.83 11.7807 103.062 12.5118 103.318 13.2281C103.765 14.4842 104.208 15.7452 104.646 17.0062C105.035 18.1298 105.409 19.2583 105.803 20.3819C106.221 21.5791 106.654 22.7665 107.077 23.9637C107.24 24.425 107.407 24.8862 107.55 25.3523C107.707 25.8626 107.619 25.9804 107.102 25.9804C106.201 25.9853 105.296 25.9853 104.395 25.9804C103.967 25.9804 103.923 25.9362 103.775 25.5093C103.386 24.371 103.007 23.2229 102.599 22.0894C102.131 20.7892 101.689 19.4791 101.231 18.174C100.758 16.8394 100.296 15.4999 99.8283 14.1653C99.3706 12.8601 98.8981 11.5599 98.47 10.2498C98.4109 10.0634 98.3272 9.88675 98.2337 9.71502C98.1255 9.50404 97.9138 9.43534 97.6973 9.42553C97.3873 9.41081 97.0723 9.4059 96.7622 9.43044C96.4473 9.45497 96.2307 9.60708 96.1175 9.93582C95.778 10.9711 95.4089 11.9966 95.0496 13.027C94.6116 14.2831 94.1884 15.549 93.7257 16.8001C93.2631 18.0513 92.8301 19.3123 92.397 20.5782C91.831 22.2219 91.2454 23.8607 90.6696 25.5044C90.5121 25.9558 90.4629 25.9853 90.0002 25.9853C89.0996 25.9853 88.1941 25.9902 87.2935 25.9853C86.8702 25.9853 86.7521 25.8479 86.8752 25.4455C87.0425 24.8813 87.2394 24.3268 87.4313 23.7724C87.7364 22.8941 88.0465 22.0207 88.3565 21.1425C88.637 20.3476 88.9274 19.5527 89.2079 18.7579C89.4786 17.9875 89.7394 17.2172 90.0101 16.4469C90.33 15.544 90.6548 14.6412 90.9747 13.7335C91.3389 12.6884 91.6932 11.6384 92.0574 10.5933C92.3822 9.65614 92.7218 8.7288 93.0515 7.79164C93.2139 7.33042 93.3665 6.86429 93.5141 6.39817C93.77 5.59349 94.0653 5.36288 94.897 5.35797C95.6697 5.36288 96.4571 5.36288 97.2445 5.36288Z" fill="#AF1E48"/>
<path d="M148.86 2.79675C148.791 1.31496 150.11 -0.0147208 151.7 -1.00004e-06C153.225 0.00981217 154.5 1.25118 154.5 2.85073C154.5 4.2442 153.343 5.63276 151.695 5.64257C149.952 5.64748 148.747 4.14606 148.86 2.79675Z" fill="#98304F"/>
<path d="M41.3428 13.1644C40.9835 11.6973 40.3093 10.3627 39.3398 9.18021C37.7945 7.29608 35.8407 6.07434 33.4587 5.58858C31.4951 5.19115 29.5561 5.34326 27.6613 6.05471C26.5589 6.47177 25.5796 7.07528 24.6937 7.82599C23.7291 8.64539 22.9712 9.65124 22.2872 10.7062C21.0519 12.6001 19.9692 14.5873 18.793 16.5205C18.0154 17.806 17.1296 18.9983 16.0173 20.0238C15.097 20.8677 14.0389 21.4908 12.8233 21.7558C10.4069 22.2759 8.20708 21.8343 6.36156 20.0925C5.29854 19.0915 4.68337 17.8551 4.49636 16.4223C4.30935 14.9994 4.644 13.6746 5.36252 12.4382C5.98754 11.3636 6.87339 10.5541 7.97086 10.0143C9.40298 9.31759 10.9089 9.16058 12.4641 9.59236C13.4287 9.86222 14.2604 10.348 15.0084 11.0005C15.3775 11.3195 15.5646 11.3048 15.8746 10.9368C16.4701 10.2302 17.036 9.48932 17.6463 8.79259C17.9022 8.5031 17.853 8.17926 17.5577 7.93393C17.2723 7.69351 16.9868 7.44327 16.6817 7.23229C15.225 6.24607 13.6354 5.6033 11.8686 5.43157C9.74256 5.2255 7.71002 5.58368 5.8399 6.60915C4.33395 7.43837 3.08884 8.58651 2.14886 10.034C1.27777 11.3833 0.697049 12.8405 0.55925 14.4499C0.406687 16.1917 0.524801 17.8992 1.22856 19.5429C1.56813 20.3427 1.96185 21.113 2.48351 21.7999C3.26109 22.8254 4.19123 23.6988 5.29854 24.3955C6.53873 25.1806 7.88719 25.6418 9.30947 25.8822C10.8499 26.1472 12.3755 25.9264 13.8765 25.5486C14.2555 25.4504 14.6393 25.3376 14.9986 25.1806C15.9287 24.7782 16.7949 24.268 17.5676 23.6056C18.6453 22.6831 19.6936 21.7313 20.5352 20.5782C20.8895 20.0925 21.1946 19.5773 21.5391 19.0768C21.6966 19.2093 21.7557 19.381 21.8196 19.5478C22.1937 20.5291 22.7252 21.4221 23.4043 22.2219C24.4378 23.4437 25.6583 24.4102 27.1397 25.0628C28.0452 25.4652 28.9852 25.7301 29.9448 25.8871C31.0964 26.0736 32.2481 26 33.4046 25.7547C35.0532 25.4063 36.5247 24.7243 37.8289 23.6595C39.7729 22.0698 40.9638 20.0434 41.4609 17.5852C41.7611 16.0936 41.6971 14.6167 41.3428 13.1644ZM31.3081 21.9766C27.9074 21.9422 25.0678 19.1945 25.0382 15.7109C25.0678 12.1634 27.8188 9.39119 31.3376 9.36666C34.8416 9.34212 37.637 12.2027 37.6517 15.6912C37.6616 19.0424 34.8318 22.0109 31.3081 21.9766Z" fill="#AF1E48"/>
<path d="M151.646 5.21573C150.346 5.31877 149.214 4.09212 149.234 2.76243C149.254 1.57504 150.351 0.372926 151.705 0.387646C152.979 0.402366 154.126 1.57995 154.116 2.82622C154.111 4.02343 153.058 5.3433 151.646 5.21573Z" fill="#FAF8FA"/>
<path d="M152.202 3.00776C152.379 3.41501 152.708 3.73394 152.787 4.18044C152.453 4.30801 152.261 4.16572 152.118 3.87132C152.01 3.65543 151.901 3.43954 151.749 3.24328C151.645 3.1108 151.537 3.02739 151.38 3.08136C151.247 3.12552 151.271 3.26781 151.271 3.38066C151.267 3.59165 151.271 3.80263 151.267 4.01852C151.267 4.15591 151.198 4.21969 151.055 4.2246C150.912 4.2246 150.843 4.16572 150.843 4.02343C150.843 3.22365 150.843 2.42388 150.843 1.62411C150.843 1.47691 150.932 1.41803 151.06 1.41803C151.385 1.41803 151.714 1.3984 152.039 1.42784C152.349 1.45728 152.595 1.6192 152.659 1.95285C152.723 2.28159 152.743 2.60052 152.413 2.82622C152.339 2.88019 152.27 2.94888 152.202 3.00776Z" fill="#A22C4C"/>
<path d="M151.675 1.92339C152.103 1.9283 152.231 2.01662 152.222 2.26195C152.212 2.49746 152.03 2.62013 151.685 2.62013C151.301 2.62504 151.163 2.43859 151.277 2.07059C151.35 1.83998 151.547 1.95283 151.675 1.92339Z" fill="#F4EDF0"/>
</g>
<defs>
<clipPath id="clip0_276_2803">
<rect width="154" height="26" fill="white" transform="translate(0.5)"/>
</clipPath>
</defs>
</svg>
