<svg width="72" height="72" viewBox="0 0 72 72" fill="none" xmlns="http://www.w3.org/2000/svg">
<g clip-path="url(#clip0_505_1244)">
<path d="M36 72C55.8822 72 72 55.8822 72 36C72 16.1177 55.8822 0 36 0C16.1177 0 0 16.1177 0 36C0 55.8822 16.1177 72 36 72Z" fill="url(#paint0_linear_505_1244)"/>
<path d="M13.9749 46.985C13.9474 46.8753 13.92 46.7519 13.8926 46.6421C13.9063 46.5599 13.8789 46.5187 13.7966 46.5187L13.7691 46.505C13.2754 45.449 13.0149 44.3244 12.6857 43.2136C12.672 43.1724 12.6446 43.1176 12.6309 43.0764C12.6309 42.3496 12.6171 41.6227 12.6171 40.8959C12.6034 38.1119 13.4126 35.6296 15.3326 33.5724C18.336 30.377 22.944 29.5953 26.7566 30.8707C28.0594 31.3096 29.2251 32.0227 30.1577 33.0787C30.2674 33.2021 30.4183 33.4764 30.6514 33.3393C30.816 33.2433 30.72 32.9964 30.72 32.8319C30.7337 28.745 30.72 24.6581 30.7474 20.5576C30.7474 19.9816 30.5966 19.7073 29.9931 19.5701C26.2217 18.7884 22.4503 17.9793 18.6926 17.1701C17.184 16.841 15.6617 16.5256 14.1531 16.1964C14.0023 16.169 13.8789 16.073 13.5909 15.9496C14.5097 15.7576 15.3051 15.8124 16.0594 15.8124C21.7646 15.7987 27.4834 15.8261 33.1886 15.8261C34.5326 15.8261 34.5189 15.7987 34.5189 17.1976C34.5189 28.553 34.5189 39.9084 34.5051 51.2639C34.5051 51.7987 34.6286 52.0181 35.1909 51.9496C36.1371 51.8399 37.0971 52.0319 38.0297 51.7987C38.1806 51.7987 38.3314 51.785 38.4823 51.785C39.6617 51.8399 40.8549 51.881 42.0343 51.7164C42.624 51.7027 43.2274 51.689 43.8171 51.689C44.352 51.7987 44.8869 51.7576 45.4903 51.6204C44.9691 51.5381 44.5714 51.2776 44.1051 51.2776C44.0777 51.2364 44.0503 51.2227 44.0091 51.2364C43.8034 51.017 43.5703 50.8936 43.2686 50.8936C43.2274 50.8661 43.1863 50.8524 43.1451 50.8524C42.9806 50.6467 42.7611 50.5507 42.5006 50.537L42.4594 50.5507H42.5006C42.2537 50.2216 41.8697 50.0844 41.5406 49.8787H41.5269C41.472 49.8513 41.4171 49.8239 41.3623 49.7964L41.3349 49.7827C41.3211 49.7279 41.3074 49.673 41.2251 49.7141C41.1429 49.6456 41.0606 49.5633 40.9783 49.4947C40.9371 49.3439 40.8549 49.2479 40.6903 49.2341C40.6491 49.0833 40.5669 49.001 40.416 48.9736C40.3749 48.9324 40.32 48.8776 40.2789 48.8364C38.8663 47.2319 37.824 45.449 37.5086 43.3096C37.0834 40.3747 37.3303 37.5633 39.072 35.0261C39.1817 34.8616 39.2503 34.6559 39.3326 34.4776C40.2103 33.6684 40.9783 32.7496 42.0069 32.0913C46.3817 29.2661 52.704 29.8559 56.352 33.4216C56.7086 33.7644 56.9143 34.2581 57.3669 34.4913C57.7509 35.2319 58.176 35.9587 58.5051 36.713C59.1086 38.1393 59.328 39.6479 59.3829 41.1839C59.3829 41.513 59.3829 41.8421 59.3691 42.1576C59.2457 42.8021 59.1086 43.4467 58.9851 44.0913C58.7246 45.4353 57.9703 46.5599 57.3531 47.7256C57.2023 47.7667 57.12 47.8764 57.1337 48.0273L57.12 48.041C56.9966 48.0684 56.9417 48.1507 56.9417 48.2741C56.3794 48.7267 55.8583 49.2067 55.4194 49.7827C55.3783 49.769 55.3509 49.7827 55.3371 49.8239C55.2549 49.8101 55.2 49.8376 55.1726 49.9336C55.0903 49.961 54.9806 49.961 54.912 50.0159C53.6503 50.9759 52.1829 51.4696 50.6606 51.8261C49.2069 52.169 47.7257 52.4021 46.2994 52.8684C46.2034 52.8821 46.1074 52.8959 46.0251 52.9096C45.5451 52.9644 45.0651 53.0193 44.6263 53.2387H44.6126C44.3931 53.2799 44.16 53.2936 43.9406 53.3484C41.952 53.7873 39.9497 54.2124 37.9611 54.6924C36.7131 54.9941 35.4377 55.1587 34.2171 55.625C34.1211 55.6387 34.0251 55.6661 33.9154 55.6799C33.8469 55.6387 33.8057 55.6524 33.7783 55.721H33.7646C33.0789 55.8581 32.3794 55.9816 31.6937 56.1187C30.8983 56.2696 30.8983 56.2696 30.8983 55.4604C30.8983 53.3621 30.8983 51.2776 30.8983 49.1793C30.8983 49.0284 30.9669 48.8501 30.8023 48.7404C30.6926 48.6719 30.5554 48.7541 30.5143 48.8501C30.1166 49.577 29.3486 49.9199 28.8274 50.4959C27.7714 51.0033 26.7429 51.5519 25.5634 51.785C23.9589 52.1004 22.368 52.0181 20.7771 51.8124C20.6811 51.7987 20.5989 51.785 20.5029 51.7713C20.4069 51.7301 20.3109 51.6753 20.2011 51.6341C18.3223 51.0856 16.6629 50.1804 15.3326 48.7267C14.8389 48.137 14.4137 47.5473 13.9749 46.985ZM27.0994 47.6433C27.2777 47.6296 27.4286 47.5747 27.4971 47.3964C27.5931 47.3553 27.6891 47.3004 27.7851 47.2593C29.5269 46.1759 30.8023 43.721 30.6377 41.4581C30.6377 41.321 30.6377 41.1701 30.6377 41.033C30.6651 40.9919 30.6651 40.9507 30.624 40.9096C30.6651 40.5393 30.6926 40.169 30.5691 39.8124C30.5691 39.3599 30.5006 38.9347 30.2674 38.537V38.5233C29.9931 37.3027 29.3074 36.3427 28.416 35.5199C26.7566 34.0113 24.768 33.545 22.6011 33.7919C20.6811 34.0113 19.0903 34.9027 17.9383 36.4661C16.4571 38.4684 16.1966 40.7587 16.6766 43.1039C16.9783 44.5301 17.6366 45.833 18.8434 46.7793L18.8571 46.793C19.2 47.1633 19.584 47.465 20.064 47.6296L20.0914 47.6707H20.1326C20.2011 47.7804 20.2971 47.8353 20.4343 47.8216H20.448C21.0926 48.329 21.8743 48.425 22.656 48.4799C24 48.6993 25.3029 48.6581 26.5097 47.9313C26.6606 47.9313 26.8114 47.9039 26.9349 47.7941C27.0446 47.7804 27.0857 47.7256 27.0994 47.6433ZM41.8697 44.3381C41.9383 44.6399 42.1577 44.6673 42.4046 44.6673C43.0629 44.6673 43.7349 44.6536 44.3931 44.6673C44.8457 44.681 44.9417 44.489 44.8594 44.0913C44.6949 43.3096 44.5577 42.5279 44.4206 41.7461C44.3794 41.4856 44.2286 41.3347 43.9543 41.3347C43.2 41.3347 42.4457 41.3347 41.7051 41.321C41.3897 41.321 41.2114 41.4307 41.2526 41.7599C41.3486 42.4456 41.2526 43.1861 41.6914 43.8033C41.7326 43.9404 41.76 44.0776 41.8011 44.2147C41.76 44.2696 41.8011 44.3244 41.8697 44.3381ZM47.9589 41.6913C47.9177 41.6364 47.8766 41.5816 47.8217 41.5267C47.7531 41.417 47.6434 41.3896 47.52 41.4033C46.9166 41.3073 46.3269 41.2387 45.7234 41.417C45.6274 41.417 45.5451 41.4033 45.4491 41.4033C45.216 41.3073 44.9554 41.1564 44.8457 41.5541C44.9554 42.3907 45.0651 43.2136 45.1886 44.0501C45.1886 44.393 45.2434 44.7084 45.6823 44.6947C46.3406 44.6947 46.9989 44.6673 47.6709 44.6536C47.8766 44.6536 48.1234 44.6673 48.1234 44.3656C48.1509 43.4741 48.3429 42.5553 47.9589 41.6913ZM48.48 35.5061C48.48 35.5747 48.48 35.6433 48.48 35.7119C48.48 37.193 48.4937 37.097 49.9474 37.2479C51.2091 37.3713 52.0046 36.8227 52.7314 35.9313C53.0057 35.6021 52.992 35.369 52.6354 35.081C51.648 34.2856 50.4823 33.9564 49.2617 33.7781C48.7543 33.6959 48.3566 33.7919 48.48 34.4776C48.5211 34.8204 48.48 35.177 48.48 35.5061ZM48.1234 35.5061C48.1234 35.0673 48.1097 34.6421 48.1234 34.2033C48.1371 33.9427 48.0823 33.737 47.7669 33.7644C46.3406 33.8879 44.9829 34.217 43.8857 35.2181C43.7211 35.369 43.5977 35.561 43.8034 35.7393C44.544 36.4661 45.1063 37.3576 46.4366 37.2616C48.1097 37.1244 48.1234 37.2341 48.1234 35.5061ZM50.3451 41.3073C50.0983 41.3073 49.8377 41.3073 49.5909 41.3073C48.7269 41.3073 48.5074 41.5267 48.48 42.3907C48.4663 42.8021 48.4663 43.2136 48.4663 43.625C48.48 44.8867 48.4251 44.6673 49.4674 44.6536C51.6617 44.6261 51.2366 45.1199 51.6206 42.7199C51.8537 41.321 51.7989 41.3073 50.3451 41.3073ZM53.7874 41.3073C53.4171 41.3073 53.0606 41.321 52.6903 41.3073C52.4297 41.2936 52.2514 41.3896 52.1966 41.6639C52.0457 42.473 51.9086 43.2821 51.7577 44.0913C51.6891 44.5027 51.8263 44.6947 52.2651 44.681C52.704 44.6673 53.1291 44.6673 53.568 44.6673C54.7611 44.6536 54.8297 44.5987 55.1589 43.4467C55.2 43.2959 55.2137 43.1313 55.2411 42.9804C55.5429 41.0193 55.4743 41.3347 53.7874 41.3073ZM48.4663 46.793C48.4663 46.9713 48.4663 47.1633 48.4663 47.3416C48.4663 48.6856 48.6171 48.7953 49.9337 48.4524C50.4274 48.3153 50.7703 48.041 50.8114 47.465C50.8526 46.985 50.9623 46.5187 51.0446 46.0524C51.2366 44.9553 51.4423 45.0376 50.208 45.0376C48.4663 45.0101 48.4663 45.0239 48.4663 46.793ZM42.7749 40.9781C42.7749 40.9919 42.7749 40.9919 42.7749 41.0056C43.1177 41.0056 43.4606 40.9781 43.7897 41.0193C44.1737 41.0604 44.2423 40.841 44.2011 40.5667C44.064 39.7439 43.9131 38.9073 43.7623 38.0844C43.7074 37.7964 43.5703 37.5359 43.2274 37.5907C42.7749 37.673 42.1714 37.3027 41.8697 37.9061C41.6366 38.3724 41.4309 38.8799 41.3623 39.3873C41.1566 41.1427 40.896 40.9919 42.6926 40.9781C42.72 40.9781 42.7474 40.9781 42.7749 40.9781ZM53.8971 40.9644C54.1989 40.9644 54.5006 40.9233 54.7886 40.9781C55.3097 41.0741 55.4469 40.8684 55.4057 40.3884C55.3371 39.689 55.2274 38.9896 54.9806 38.3176C54.7063 37.577 54.4183 37.4536 53.4034 37.577C52.8 37.6456 52.9097 38.1393 52.8274 38.5096C52.7589 38.8387 52.7177 39.1816 52.6629 39.5244C52.4297 40.9781 52.4297 40.9781 53.8971 40.9644ZM48.1371 46.8204C48.1371 46.3816 48.1371 45.9564 48.1371 45.5176C48.1371 45.2159 48.0411 45.0239 47.712 45.0239C47.0674 45.0239 46.4366 45.0239 45.792 45.0239C45.5451 45.0239 45.4354 45.1473 45.4629 45.4216C45.5863 46.2856 45.7371 47.1359 45.9566 47.9724C45.984 48.0684 46.0526 48.2056 46.1349 48.2467C46.7109 48.4799 47.3691 48.6581 47.9314 48.4936C48.3977 48.3427 48.0411 47.7119 48.1234 47.3141C48.1646 47.1496 48.1371 46.985 48.1371 46.8204ZM43.6251 45.0101C43.3509 45.0101 43.0766 45.0239 42.8023 45.0101C42.2811 44.9827 42.1851 45.1473 42.4594 45.5861C43.104 46.601 43.9954 47.3141 45.0377 47.8627C45.4217 48.0684 45.5314 47.9039 45.4629 47.5199C45.3943 47.1221 45.3257 46.7107 45.2434 46.313C44.9829 45.0101 44.9691 45.0101 43.6251 45.0101ZM53.1154 44.9964C52.7726 45.0101 52.416 45.0239 52.0457 45.0376C51.7303 45.0513 51.5246 45.2296 51.4834 45.545C51.4149 46.1621 51.2229 46.7519 51.1543 47.3553C51.072 48.0547 51.3189 47.9861 51.7714 47.7667C52.5394 47.3964 53.1977 46.8753 53.7051 46.1896C53.952 45.8604 54.5006 45.545 54.2949 45.1473C54.1303 44.8181 53.5406 45.0787 53.1154 44.9964ZM52.5531 37.6456C52.2514 37.9473 52.0731 38.1256 51.9086 38.2901C51.2091 39.0033 50.496 39.7027 49.7966 40.4159C49.6731 40.553 49.4263 40.6901 49.7006 40.9096C49.7966 40.9919 51.7714 40.9507 51.8674 40.8684C51.936 40.8136 52.0046 40.7313 52.0183 40.649C52.1966 39.7027 52.4709 38.7701 52.5531 37.6456ZM44.1326 37.9199C44.0777 38.4273 44.2971 39.017 44.3931 39.6067C44.5989 40.9644 44.6263 40.9644 46.0114 40.937C46.1897 40.937 46.3817 40.9507 46.56 40.937C46.7246 40.937 46.9577 41.0193 47.04 40.7999C47.1086 40.6216 46.9166 40.5119 46.8206 40.4159C45.9291 39.5793 45.024 38.7427 44.1326 37.9199ZM50.9623 37.577C50.1806 37.577 49.5634 37.577 48.9463 37.577C48.6583 37.577 48.4526 37.6456 48.4663 37.9884C48.48 38.5781 48.4663 39.1816 48.4663 39.7713C48.4663 40.0044 48.5486 40.1553 48.7817 39.9359C49.5223 39.2364 50.2354 38.5096 50.9623 37.577ZM48.1371 38.9347C48.0686 37.577 48.0686 37.577 46.7383 37.577C46.56 37.577 46.368 37.5633 46.1897 37.577C46.0389 37.5907 45.8331 37.5221 45.7783 37.7279C45.7371 37.8787 45.888 37.961 45.984 38.057C46.3817 38.4547 46.7794 38.8799 47.2046 39.2501C47.4789 39.497 47.6846 40.0593 48.0686 39.8947C48.3977 39.7439 48.0549 39.2227 48.1371 38.9347ZM42.8709 37.2479C43.0766 37.1793 43.4743 37.385 43.4469 37.0284C43.4331 36.7541 43.1177 36.4524 42.8023 36.4387C42.4869 36.425 42.3497 36.7679 42.3497 37.0147C42.336 37.3576 42.6789 37.1656 42.8709 37.2479ZM53.8011 37.2479C53.9246 37.097 54.336 37.3987 54.3086 36.9873C54.2949 36.7953 54.144 36.4661 53.8423 36.5073C53.5543 36.5484 53.2663 36.7679 53.2526 37.0696C53.2526 37.3301 53.5817 37.193 53.8011 37.2479Z" fill="#FEFEFD"/>
</g>
<defs>
<linearGradient id="paint0_linear_505_1244" x1="36" y1="72" x2="36" y2="0" gradientUnits="userSpaceOnUse">
<stop stop-color="#FF8201"/>
<stop offset="1" stop-color="#FFCF31"/>
</linearGradient>
<clipPath id="clip0_505_1244">
<rect width="72" height="72" fill="white"/>
</clipPath>
</defs>
</svg>
